<svg width="1920" height="649" viewBox="0 0 1920 649" fill="none" xmlns="http://www.w3.org/2000/svg">
<path d="M631.987 87.5822C583.52 87.5822 535.375 76.7511 501.601 58.0485C436.629 22.0603 368.971 3.8198 300.485 3.8198H299.508C220.508 4.01938 137.492 28.4575 52.7551 76.4475L46.3701 74.0324C132.74 25.1142 217.891 0.205314 299.466 0H300.493C371.538 0 441.323 18.7027 507.926 55.5952C542.222 74.592 591.837 85.1251 640.968 83.6287C724.872 81.1573 797.203 67.1549 855.961 42.0178C920.551 14.371 1019.92 14.1571 1082.23 41.504C1143.26 68.2922 1219.32 80.929 1308.84 79.2502C1356.31 78.322 1402.5 68.2741 1435.57 51.6876C1505.2 16.7536 1576.71 -0.456462 1648.81 0.615945C1730.3 1.80963 1813.9 26.5084 1897.28 74.0372L1890.88 76.4427C1809.08 29.8145 1727.54 5.59123 1648.55 4.43478C1579.39 3.46456 1509.58 20.1905 1441.63 54.2802C1407.09 71.603 1358.81 82.0941 1309.18 83.0643C1217.47 84.7804 1139.26 71.8036 1076.55 44.2743C1017.39 18.2978 922.958 18.5489 861.561 44.8243C801.374 70.5726 727.338 84.9112 641.492 87.4428C638.33 87.5363 635.159 87.5822 631.987 87.5822Z" fill="url(#paint0_linear_119_71)"/>
<path d="M623.971 97.0479C577.538 97.0479 532.868 88.0122 500.714 72.0225C433.248 38.4828 363.31 21.478 292.832 21.478C292.368 21.478 291.904 21.478 291.442 21.4828C211.688 21.7339 128.43 43.7427 43.9739 86.893L37.8511 84.328C123.928 40.3526 209.232 17.9199 291.391 17.6592H292.832C365.698 17.6592 437.657 35.0698 506.757 69.4212C538.467 85.1903 583.018 93.8679 628.865 93.1966C718.79 91.896 796.62 77.7073 860.191 51.0261C922.393 24.9235 1018.8 24.8719 1079.7 50.9C1144.79 78.7186 1225.26 91.6486 1318.68 89.3128C1363.72 88.1936 1405.93 79.707 1437.55 65.4114C1509.16 33.0463 1582.87 17.2209 1656.27 18.1997C1738.25 19.3609 1822.19 41.6122 1905.78 84.328L1899.66 86.893C1817.64 44.9736 1735.67 23.1473 1656.02 22.0185C1585.05 21.0111 1513.25 36.5252 1443.31 68.1435C1410.26 83.0875 1366.16 91.9561 1319.12 93.1269C1223.14 95.4866 1140.88 82.2395 1074.1 53.7075C1016.29 28.9992 924.771 29.0689 865.731 53.8517C800.669 81.1623 721.065 95.6871 629.127 97.0107C627.405 97.0393 625.683 97.0479 623.971 97.0479Z" fill="url(#paint1_linear_119_71)"/>
<path d="M618.503 106.71C614.294 106.71 610.064 106.681 605.814 106.626C567.811 106.155 529.817 99.347 498.831 87.4474C350.168 30.4064 194.055 33.8155 34.8083 97.6214L29.4111 94.7308C192.182 29.5297 351.89 26.0891 504.087 84.51C533.674 95.8633 569.876 102.359 606.036 102.812C705.073 104.08 792.289 90.5901 865.225 62.8317C927.548 39.1127 1014.32 39.2101 1076.28 63.0513C1151.49 91.9977 1242.08 104.08 1345.58 98.9927C1378.33 97.3789 1410.72 91.2376 1439.26 81.2316C1594.47 26.7976 1754.29 31.3489 1914.21 94.726L1908.85 97.6262C1752.25 35.5727 1595.94 31.0873 1444.24 84.2808C1414.51 94.7021 1380.7 101.105 1346.45 102.788C1240.7 108.02 1148.01 95.616 1071.01 65.9887C1012.14 43.3316 929.672 43.2524 870.463 65.7786C799.086 92.9536 714.378 106.71 618.503 106.71Z" fill="url(#paint2_linear_119_71)"/>
<path d="M621.766 116.371C607.033 116.371 592.12 116.072 577.005 115.467C551.789 114.459 527.763 111.139 507.493 105.866C350.249 64.9212 187.963 65.8446 25.1631 108.607L21.0942 105.287C186.573 61.8109 351.589 60.8874 511.539 102.537C530.784 107.544 553.662 110.7 577.709 111.661C683.726 115.876 780.014 105.031 864.26 79.3944C930.046 59.3767 1012.16 58.9203 1073.45 78.215C1161.39 105.893 1262.74 115.951 1374.74 108.071C1394.14 106.71 1414.09 103.66 1434.05 99.0014C1594.97 61.4289 1759.29 63.5451 1922.5 105.273L1918.51 108.622C1757.83 67.5272 1596.09 65.434 1437.75 102.415C1417.02 107.255 1396.23 110.425 1375.97 111.848C1261.87 119.868 1158.52 109.61 1068.82 81.3759C1010.28 62.9482 931.778 63.4247 868.791 82.5839C794.988 105.044 712.052 116.371 621.766 116.371Z" fill="url(#paint3_linear_119_71)"/>
<path d="M624.827 125.921C597.346 125.921 569.422 125.02 541.105 123.226C533.786 122.764 525.971 121.976 517.219 120.815C351.489 98.8107 182.525 98.466 15.0827 119.766L12.8862 116.082C181.801 94.586 352.254 94.9365 519.496 117.141C527.862 118.251 535.295 119.006 542.222 119.44C660.655 126.956 772.009 118.511 873.203 94.3396C934.74 79.642 1008.04 79.6792 1069.27 94.4275C1172.34 119.249 1285.97 126.736 1407 116.651C1411.61 116.268 1416.25 115.77 1420.79 115.233C1589.68 95.2535 1761.23 95.5419 1930.71 116.077L1928.61 119.77C1760.52 99.3942 1590.32 99.1144 1422.83 118.935C1418.1 119.49 1413.26 120.008 1408.47 120.409C1285.58 130.644 1170.18 123.039 1065.47 97.8128C1006.59 83.6385 936.128 83.605 876.989 97.7335C798.462 116.488 713.936 125.921 624.827 125.921Z" fill="url(#paint4_linear_119_71)"/>
<path d="M611.686 134.701C562.242 134.701 514.662 132.416 454.675 127.6C301.814 115.317 141.683 122.429 5.2148 131.008L4.10742 127.221C141.198 118.618 302.117 111.48 456.086 123.831C553.362 131.651 617.687 132.747 711.016 128.196C744.336 126.569 781.374 122.521 820.587 118.232C872.427 112.562 926.029 106.696 971.817 106.696C1019.71 106.696 1068.44 111.606 1115.56 116.352C1132.43 118.05 1149.87 119.807 1166.8 121.281C1278.09 130.998 1349.65 133.269 1504.82 122.237C1627.02 113.55 1831.76 120.456 1939.54 127.221L1938.43 131.008C1831.11 124.279 1627.41 117.392 1506.07 126.014C1349.69 137.125 1277.55 134.817 1165.27 125.039C1148.23 123.552 1130.74 121.79 1113.81 120.083C1067.11 115.383 1018.82 110.519 971.817 110.519C926.996 110.519 873.867 116.329 822.48 121.948C783.005 126.266 745.716 130.346 711.882 131.991C675.288 133.777 643.103 134.701 611.686 134.701Z" fill="url(#paint5_linear_119_71)"/>
<path d="M1458.76 145.225C1405.72 145.225 1352.75 144.926 1300.37 144.138C1250.24 143.387 1199.75 140.622 1150.92 137.946C1093.97 134.826 1035.1 131.604 976.972 131.604C912.193 131.604 846.215 134.603 782.411 137.498C730.249 139.871 676.315 142.32 623.084 143.14C489.477 145.21 352.537 144.306 220.096 143.425C146.406 142.94 70.2048 142.436 -5.35864 142.436V138.613C70.2667 138.618 146.496 139.121 220.218 139.606C352.565 140.478 489.417 141.377 622.804 139.326C675.781 138.51 729.574 136.062 781.607 133.698C845.611 130.789 911.791 127.781 976.972 127.781C1035.58 127.781 1094.71 131.022 1151.89 134.155C1200.54 136.817 1250.85 139.573 1300.63 140.324C1433.29 142.31 1569.78 141.144 1701.75 140.02C1782.61 139.331 1866.22 138.618 1949.02 138.613V142.436C1866.29 142.436 1782.73 143.15 1701.91 143.839C1621.9 144.525 1540.24 145.225 1458.76 145.225Z" fill="url(#paint6_linear_119_71)"/>
<path d="M1335.99 154.103C1273.61 154.103 1210.8 152.932 1150.04 151.799C1089.5 150.676 1026.89 149.51 964.95 149.51C899.021 149.51 831.482 150.676 766.179 151.799C700.624 152.932 632.844 154.103 566.433 154.103H566.241L-22.3557 154.07V150.246L566.241 150.279H566.433C632.693 150.279 700.393 149.113 765.867 147.985C831.251 146.857 898.871 145.686 964.95 145.686C1027.06 145.686 1089.75 146.857 1150.38 147.985C1211.05 149.113 1273.78 150.279 1335.99 150.279H1336.17L1966.44 150.246V154.07L1336.17 154.103H1335.99Z" fill="url(#paint7_linear_119_71)"/>
<path d="M901.035 165.951C586.651 165.951 272.128 165.946 -45.3579 165.941V162.118C637.646 162.132 1307.17 162.132 1990.22 162.118V165.941C1624.69 165.946 1262.97 165.951 901.035 165.951Z" fill="url(#paint8_linear_119_71)"/>
<path d="M2016.43 178.051C1319.25 178.019 626.65 178.019 -70.6931 178.051V174.228C626.65 174.204 1319.27 174.204 2016.43 174.228V178.051Z" fill="url(#paint9_linear_119_71)"/>
<path d="M2041.17 190.407C1328.47 190.342 618.311 190.342 -94.6499 190.407V186.584C618.301 186.528 1328.48 186.528 2041.17 186.584V190.407Z" fill="url(#paint10_linear_119_71)"/>
<path d="M2060.56 199.196H-113.54V203.02H2060.56V199.196Z" fill="url(#paint11_linear_119_71)"/>
<path d="M2071.54 212.076H-124.536V215.899H2071.54V212.076Z" fill="url(#paint12_linear_119_71)"/>
<path d="M2077.23 225.225H-130.61V229.048H2077.23V225.225Z" fill="url(#paint13_linear_119_71)"/>
<path d="M969.854 242.478C881.189 242.478 796.701 236.5 714.963 230.717C643.023 225.63 568.648 220.371 492.459 219.308C384.286 217.839 280.073 224.008 169.768 230.573C71.5048 236.425 -30.0997 242.478 -134.204 242.478V238.654C-30.6235 238.654 70.7188 232.62 168.72 226.787C274.464 220.492 383.814 213.964 492.701 215.494C569.392 216.561 644.032 221.839 716.203 226.941C797.638 232.704 881.832 238.658 969.854 238.658C970.508 238.658 971.153 238.658 971.807 238.654C1049.24 238.579 1123.4 234.038 1195.12 229.645C1245.83 226.539 1298.26 223.327 1351.87 221.671C1496.82 217.191 1622.28 222.973 1755.06 229.085C1857.19 233.79 1962.79 238.654 2080.21 238.654V242.478C1962.38 242.478 1856.57 237.6 1754.24 232.89C1621.81 226.792 1496.79 221.042 1352.41 225.486C1299.08 227.132 1246.78 230.335 1196.2 233.431C1124.22 237.842 1049.79 242.398 971.828 242.478H969.854Z" fill="url(#paint14_linear_119_71)"/>
<path d="M969.934 256.2C878.317 256.2 792.32 248.292 709.122 240.641C633.175 233.66 554.65 226.438 473.628 225.551C369.908 224.493 272.591 232.172 169.576 240.379C71.9267 248.157 -29.0527 256.2 -137.345 256.2V252.377C-29.758 252.377 70.8707 244.366 168.175 236.612C271.594 228.377 369.241 220.548 473.828 221.737C555.555 222.627 634.443 229.878 710.733 236.896C793.529 244.51 879.134 252.382 969.944 252.382C970.569 252.382 971.181 252.382 971.807 252.377C1053.2 252.279 1128.63 246.297 1201.55 240.51C1253.97 236.35 1308.18 232.052 1364.82 229.874C1514.6 224.12 1631.16 231.58 1754.6 239.475C1853.8 245.816 1956.37 252.377 2082.7 252.377V256.2C1955.81 256.2 1852.95 249.621 1753.47 243.256C1630.5 235.395 1514.36 227.953 1365.51 233.679C1309.23 235.842 1255.19 240.132 1202.95 244.277C1129.68 250.087 1053.92 256.097 971.827 256.2H969.934Z" fill="url(#paint15_linear_119_71)"/>
<path d="M970.89 270.216C876.091 270.216 787.979 260.327 702.747 250.758C619.811 241.446 541.457 232.652 456.77 232.042C355.526 231.347 264.494 240.542 168.025 250.325C71.5945 260.103 -28.127 270.216 -142.058 270.216V266.393C-29.0241 266.393 70.256 256.33 166.263 246.595C263.215 236.765 354.772 227.58 456.89 228.218C542.515 228.843 624.958 238.095 704.692 247.047C789.439 256.559 877.079 266.393 970.89 266.393H971.806C1057.33 266.337 1134.18 259.096 1208.5 252.092C1262.32 247.023 1317.97 241.778 1377.33 239.143C1534.56 232.172 1642.23 241.032 1756.2 250.428C1851.52 258.275 1950.08 266.393 2086.86 266.393V270.216C1949.35 270.216 1850.43 262.066 1754.75 254.185C1641.37 244.851 1534.25 236.029 1378.12 242.949C1319.19 245.559 1263.75 250.787 1210.15 255.837C1135.43 262.877 1058.17 270.156 971.827 270.216H970.89Z" fill="url(#paint16_linear_119_71)"/>
<path d="M975.23 284.545H971.807C874.017 284.456 784.013 273.91 696.969 263.707C612.059 253.757 531.852 244.361 444.978 243.834C343.273 243.172 256.037 252.889 163.242 263.128C67.8499 273.658 -30.7847 284.545 -150.377 284.545V280.721C-31.7623 280.721 66.3998 269.89 161.328 259.413C254.626 249.117 342.858 239.414 445.079 240.011C532.938 240.547 617.355 250.436 698.992 260.005C785.554 270.146 875.055 280.637 971.827 280.721C972.955 280.726 974.102 280.726 975.23 280.726C1126.58 280.726 1237.01 271.583 1387.11 254.769C1558.09 235.604 1662.88 247.248 1784.23 260.718C1872.81 270.552 1964.42 280.721 2094.89 280.721V284.545C1963.44 284.545 1867.2 273.858 1782.31 264.435C1661.99 251.075 1558.11 239.544 1389.05 258.48C1238.34 275.364 1127.4 284.545 975.23 284.545Z" fill="url(#paint17_linear_119_71)"/>
<path d="M2105.58 299.191C1984.6 299.191 1892.43 290.966 1803.3 283.016C1675.16 271.583 1564.48 261.707 1399.69 278.731C1244.37 294.776 1121.41 298.044 973.871 298.044H971.737C864.352 298.021 766.825 290.015 672.508 282.279C595.342 275.947 515.549 269.401 430.912 267.284C326.084 264.64 232.201 273.21 132.72 282.261C41.2258 290.583 -53.3815 299.191 -161.121 299.191V295.368C-54.1879 295.368 40.0272 286.803 131.128 278.512C231.134 269.419 325.539 260.807 431.355 263.47C516.496 265.6 596.541 272.165 673.948 278.517C767.911 286.229 865.075 294.198 971.737 294.221H973.871C1120.86 294.221 1243.3 290.971 1397.9 275.001C1564.37 257.809 1681.18 268.235 1804.86 279.262C1893.61 287.185 1985.39 295.368 2105.58 295.368V299.191Z" fill="url(#paint18_linear_119_71)"/>
<path d="M970.106 318.421C867.895 318.421 769.623 312.938 674.573 307.64C593.48 303.117 509.628 298.44 423.964 297.214C318.511 295.717 220.551 300.38 116.859 305.328C25.8076 309.674 -68.3455 314.168 -168.874 314.168V310.345C-68.7684 310.345 25.1724 305.863 116.014 301.532C219.986 296.571 318.179 291.861 424.225 293.4C510.251 294.626 594.286 299.312 675.56 303.845C770.367 309.132 868.39 314.597 970.106 314.597H971.434C1126.72 314.523 1252.97 312.229 1402.29 301.056C1565.31 288.854 1693.77 295.102 1829.8 301.719C1917.07 305.962 2007.3 310.345 2113.18 310.345V314.168C2006.87 314.168 1916.42 309.766 1828.94 305.514C1693.5 298.935 1565.56 292.719 1403.6 304.824C1253.74 316.043 1127.15 318.342 971.434 318.421H970.106Z" fill="url(#paint19_linear_119_71)"/>
<path d="M2119.12 325.667H-175.029V329.491H2119.12V325.667Z" fill="url(#paint20_linear_119_71)"/>
<path d="M2125.16 341.339H-181.292V345.162H2125.16V341.339Z" fill="url(#paint21_linear_119_71)"/>
<path d="M2133.05 357.379H-189.347V361.203H2133.05V357.379Z" fill="url(#paint22_linear_119_71)"/>
<path d="M1584.49 385.463C1483.6 385.463 1381.39 380.441 1282.53 375.587C1184.17 370.761 1082.46 365.767 982.572 365.767C870.625 365.767 756.603 370.757 646.326 375.582C535.337 380.436 420.568 385.463 307.161 385.463C223.086 385.463 137.352 383.477 54.436 381.556C-29.1251 379.621 -115.524 377.62 -200.888 377.62V373.797C-115.314 373.797 -28.8119 375.802 54.8483 377.742C137.663 379.658 223.299 381.64 307.161 381.64C420.177 381.64 534.751 376.627 645.551 371.778C756.017 366.942 870.241 361.944 982.572 361.944C1082.9 361.944 1184.84 366.952 1283.41 371.792C1382.05 376.632 1484.03 381.64 1584.49 381.64C1677.01 381.64 1771.44 379.658 1862.75 377.737C1954.93 375.802 2050.26 373.797 2144.53 373.797V377.62C2050.44 377.62 1955.22 379.621 1863.13 381.556C1771.72 383.477 1677.19 385.463 1584.49 385.463Z" fill="url(#paint23_linear_119_71)"/>
<path d="M375.283 406.665C276.517 406.665 177.399 403.569 81.0908 400.566C-15.5908 397.549 -115.566 394.43 -214.896 394.43V390.607C-115.294 390.607 -15.1678 393.73 81.6538 396.752C193.25 400.236 308.61 403.812 422.684 402.594C512.345 401.615 604.999 391.642 694.611 381.994C786.176 372.137 880.855 361.944 970.225 361.8H971.735C1050.27 361.8 1137.14 371.662 1221.18 381.197C1284.1 388.341 1349.18 395.726 1409.04 398.696C1563.52 406.348 1718.66 401.447 1868.7 396.697C1963.23 393.703 2060.97 390.607 2158.53 390.607V394.43C2061.25 394.43 1963.65 397.517 1869.27 400.506C1718.89 405.266 1563.4 410.195 1408.16 402.492C1347.76 399.498 1282.4 392.08 1219.21 384.909C1135.66 375.424 1049.27 365.619 971.735 365.619C971.242 365.619 970.747 365.619 970.244 365.623C881.82 365.763 787.597 375.909 696.473 385.716C606.459 395.404 513.382 405.425 422.883 406.409C407.034 406.586 391.163 406.665 375.283 406.665Z" fill="url(#paint24_linear_119_71)"/>
<path d="M352.707 423.045C255.3 423.045 157.521 420.164 62.3903 417.362C-32.9715 414.55 -131.585 411.645 -229.245 411.645V407.822C-131.324 407.822 -32.5775 410.736 62.9142 413.547C178.689 416.96 298.429 420.472 416.39 418.784C507.965 417.455 604.515 404.389 697.895 391.754C794.263 378.712 885.285 366.392 970.548 366.089H972.812C1045.87 366.089 1131.91 378.469 1215.16 390.453C1282.53 400.151 1352.21 410.176 1413.88 413.436C1572.03 421.792 1734.52 417.311 1891.67 412.993C1983.95 410.452 2079.38 407.822 2172.89 407.822V411.645C2079.62 411.645 1984.33 414.266 1892.16 416.802C1734.68 421.138 1571.8 425.629 1412.95 417.232C1350.51 413.934 1280.45 403.849 1212.71 394.099C1130.06 382.204 1044.61 369.908 972.812 369.908C972.068 369.908 971.344 369.908 970.608 369.913C886.504 370.211 796.005 382.456 700.2 395.423C606.338 408.124 509.275 421.26 416.652 422.598C395.373 422.906 374.046 423.045 352.707 423.045Z" fill="url(#paint25_linear_119_71)"/>
<path d="M318.227 441.156C223.69 441.156 126.738 438.116 31.8773 435.14C-59.9991 432.259 -154.99 429.28 -243.948 429.28V425.456C-154.717 425.456 -59.5763 428.44 32.4321 431.326C177.046 435.873 326.585 440.563 464.433 434.353C548.062 430.595 625.832 419.077 701.035 407.938C791.261 394.574 876.474 381.952 971.172 381.476C1067.28 380.907 1157.59 393.571 1253.03 406.893C1327.02 417.217 1403.53 427.895 1482.68 431.774C1625.88 438.778 1776.53 434.558 1922.23 430.464C2009.87 428.002 2100.5 425.456 2187.59 425.456V429.28C2100.75 429.28 2010.25 431.821 1922.72 434.278C1776.69 438.372 1625.69 442.629 1481.82 435.57C1401.89 431.658 1325.01 420.929 1250.64 410.548C1155.82 397.316 1066.58 384.819 971.252 385.3C877.813 385.766 793.165 398.304 703.553 411.575C627.928 422.775 549.735 434.357 465.237 438.158C417.364 440.308 368.123 441.156 318.227 441.156Z" fill="url(#paint26_linear_119_71)"/>
<path d="M271.674 456.17C181.598 456.17 89.2272 453.9 -1.37268 451.671C-91.5271 449.451 -176.689 447.357 -259.01 447.357V443.535C-176.468 443.535 -91.2053 445.633 -0.929291 447.857C153.534 451.652 313.232 455.592 457.252 448.127C544.691 443.6 623.517 430.399 699.746 417.628C789.903 402.529 875.054 388.27 971.474 387.669C973.398 387.66 975.33 387.655 977.254 387.655C1071.53 387.655 1160.72 401.867 1255.05 416.905C1330.05 428.855 1407.61 441.217 1488.22 445.819C1639 454.436 1799.65 450.804 1955.01 447.302C2037.01 445.45 2121.8 443.535 2202.65 443.535V447.357C2122 447.357 2037.31 449.269 1955.42 451.116C1799.7 454.641 1638.68 458.264 1487.22 449.615C1405.75 444.961 1327.78 432.535 1252.36 420.514C1156.82 405.285 1066.93 390.932 971.575 391.492C876.555 392.08 792.037 406.236 702.557 421.222C625.864 434.064 546.574 447.344 458.178 451.923C398.163 455.028 335.487 456.17 271.674 456.17Z" fill="url(#paint27_linear_119_71)"/>
<path d="M225.776 472.36C140.101 472.36 52.5531 470.681 -33.4642 469.036C-117.931 467.417 -197.705 465.888 -274.459 465.888V462.065C-197.534 462.065 -117.669 463.598 -33.1219 465.217C130.333 468.345 299.368 471.582 450.012 463.189C540.552 458.138 620.467 443.734 697.752 429.807C788.202 413.505 873.625 398.109 971.687 397.452C973.588 397.442 975.512 397.433 977.416 397.433C1072.06 397.433 1162.11 413.016 1257.35 429.494C1333.45 442.662 1412.14 456.278 1494.12 461.416C1651.5 471.283 1820.61 468.103 1984.12 465.03C2061.7 463.575 2141.91 462.065 2218.1 462.065V465.888C2142.08 465.888 2061.95 467.394 1984.46 468.848C1820.55 471.926 1651.1 475.116 1493.02 465.202C1410.12 460.004 1330.99 446.314 1254.46 433.07C1158.04 416.387 1066.79 400.613 971.806 401.275C875.236 401.918 790.476 417.193 700.745 433.365C622.985 447.381 542.575 461.874 451 466.983C379.151 470.989 303.234 472.36 225.776 472.36Z" fill="url(#paint28_linear_119_71)"/>
<path d="M199.613 490.493C115.317 490.493 29.4113 489.039 -55.0758 487.607C-137.758 486.204 -215.852 484.884 -291.084 484.884V481.06C-215.7 481.06 -137.528 482.39 -54.7727 483.789C113.748 486.651 287.967 489.603 443.154 480.874C535.043 475.712 616.016 461.099 694.318 446.966C785.914 430.441 872.426 414.825 971.756 414.158C1069.57 413.669 1162.38 429.69 1260.8 446.826C1337.91 460.255 1417.63 474.136 1500.56 479.386C1662.03 489.617 1835.64 486.632 2003.53 483.742C2080.09 482.422 2159.25 481.06 2234.45 481.06V484.884C2159.41 484.884 2080.32 486.241 2003.84 487.556C1835.58 490.451 1661.61 493.44 1499.43 483.173C1415.6 477.862 1335.43 463.902 1257.9 450.403C1160.23 433.397 1067.96 417.311 971.876 417.982C874.037 418.634 788.191 434.124 697.311 450.529C618.532 464.745 537.066 479.443 444.142 484.67C366.292 489.044 283.757 490.493 199.613 490.493Z" fill="url(#paint29_linear_119_71)"/>
<path d="M1806.45 508.063C1705.12 508.063 1604.11 506.464 1506.31 501.144C1423.78 496.653 1343.09 484.842 1265.05 473.422C1164.49 458.707 1069.58 444.681 971.875 445.437C873.22 446.071 783.608 459.187 688.729 473.073C609.219 484.712 526.998 496.746 437.293 501.218C265.461 509.793 76.9725 507.83 -105.355 505.932C-182.43 505.13 -255.224 504.374 -326.601 504.374V500.552C-255.133 500.552 -182.288 501.311 -105.163 502.113C76.8405 503.997 265.079 505.964 436.408 497.422C525.294 492.988 607.113 481.014 686.242 469.432C781.715 455.457 871.892 442.257 971.756 441.613C1070.98 440.955 1166.33 454.967 1267.54 469.781C1345.21 481.144 1425.53 492.9 1507.28 497.348C1679.41 506.711 1861.9 504.519 2038.41 502.379C2112.77 501.484 2189.66 500.552 2263.41 500.552V504.374C2189.76 504.374 2112.93 505.302 2038.62 506.198C1961.93 507.125 1884.1 508.063 1806.45 508.063Z" fill="url(#paint30_linear_119_71)"/>
<path d="M2149.67 524.411C1958.45 524.411 1762.67 523.81 1570.5 518.131C1486.97 515.659 1387.31 503.373 1290.93 491.487C1177.98 477.564 1061.19 463.151 971.987 464.904C879.797 466.709 788.131 477.251 691.086 488.415C588.453 500.216 482.336 512.423 372.998 513.878C285.318 515.048 196.835 516.699 111.261 518.289C-49.1837 521.278 -215.077 524.369 -380.314 524.369V520.546C-215.248 520.546 -49.4251 517.459 110.928 514.475C196.521 512.88 285.036 511.229 372.757 510.063C481.208 508.619 586.894 496.462 689.092 484.708C786.56 473.497 878.62 462.909 971.645 461.09C1062.16 459.272 1179.51 473.801 1293.06 487.799C1389.05 499.633 1488.31 511.873 1571.03 514.317C1788.78 520.751 2011.28 520.644 2226.62 520.569L2304.54 520.546V524.369L2226.62 524.388C2201.08 524.402 2175.4 524.411 2149.67 524.411Z" fill="url(#paint31_linear_119_71)"/>
<path d="M2350.74 544.895C2155.55 544.895 1958.52 541.277 1767.95 537.78C1704.91 536.623 1641.79 535.462 1578.53 534.422C1492.9 533.019 1398.95 527.167 1308.08 521.506C1193.95 514.404 1075.87 507.07 971.917 508.277C764.084 510.739 550.762 518.475 344.459 525.959C87.8159 535.266 -177.555 544.895 -441.51 544.895V541.071C-177.879 541.071 87.3334 531.452 343.814 522.15C550.217 514.666 763.659 506.925 971.715 504.463C1076.3 503.21 1194.72 510.59 1309.18 517.72C1399.85 523.367 1493.61 529.209 1578.83 530.608C1642.09 531.643 1705.22 532.804 1768.29 533.961C1958.76 537.458 2155.73 541.071 2350.74 541.071V544.895Z" fill="url(#paint32_linear_119_71)"/>
<path d="M2394.97 565.967C2163.26 565.967 1928.94 562.506 1702.35 559.159C1462.96 555.624 1215.54 551.982 971.836 552.435C735.302 552.882 498.045 556.067 268.603 559.145C18.8375 562.497 -239.425 565.967 -499.471 565.967V562.143C-239.547 562.143 18.6561 558.679 268.36 555.326C497.855 552.248 735.162 549.063 971.795 548.611C1215.63 548.206 1463.13 551.805 1702.61 555.344C1929.14 558.687 2163.38 562.143 2394.97 562.143V565.967Z" fill="url(#paint33_linear_119_71)"/>
<path d="M2430.15 587.615C2192.38 587.615 1953.43 587.018 1722.35 586.441C1477.21 585.825 1223.69 585.21 971.817 585.279H970.911C850.445 585.279 730.874 577.544 615.232 570.065C511.057 563.332 403.35 556.365 297.566 555.353C159.607 553.936 11.3071 562.786 -132.21 571.263C-268.416 579.301 -409.244 587.615 -543.497 587.615V583.793C-409.767 583.793 -269.202 575.497 -133.257 567.472C10.5709 558.981 159.324 550.201 297.726 551.53C404.004 552.551 511.964 559.531 616.37 566.283C731.73 573.744 851.029 581.456 970.911 581.456H971.817C1223.82 581.4 1477.25 582.011 1722.4 582.622C1953.47 583.196 2192.4 583.793 2430.15 583.793V587.615Z" fill="url(#paint34_linear_119_71)"/>
<path d="M971.816 609.899C850.686 609.899 729.856 601.142 613.016 592.679C506.383 584.953 396.138 576.966 288.623 576.029C149.948 574.751 0.279419 583.909 -144.395 592.707C-283.077 601.138 -426.475 609.857 -563.213 609.857V606.034C-427.007 606.034 -283.884 597.333 -145.473 588.917C-0.485901 580.104 149.416 571.002 288.784 572.205C396.853 573.152 507.392 581.158 614.284 588.902C730.824 597.347 851.329 606.075 971.816 606.075L2449.47 606.034V609.857L971.816 609.899Z" fill="url(#paint35_linear_119_71)"/>
<path d="M2452.49 632.72C2312.64 632.72 2170.45 627.004 2032.98 621.482C1877.33 615.225 1716.46 608.753 1562.15 610.897C1472.47 612.138 1381.16 616.824 1292.85 621.356C1188.09 626.732 1079.76 632.291 971.817 632.291C850.383 632.291 728.991 622.121 611.595 612.287C502.89 603.18 390.5 593.767 281.725 593.002C147.835 592.093 2.36493 602.454 -138.18 612.511C-277.005 622.443 -420.562 632.72 -557.976 632.72V628.896C-421.197 628.896 -277.963 618.648 -139.441 608.734C1.44904 598.653 147.272 588.301 281.844 589.178C391.296 589.952 504.039 599.394 613.055 608.529C730.098 618.33 851.12 628.468 971.817 628.468C1079.3 628.468 1187.4 622.923 1291.94 617.561C1380.41 613.019 1471.9 608.329 1561.91 607.083C1716.63 604.916 1877.81 611.415 2033.68 617.677C2171 623.193 2312.98 628.896 2452.49 628.896V632.72Z" fill="url(#paint36_linear_119_71)"/>
<path d="M2445.94 656.224C2303.35 656.224 2159.94 646.95 2021.23 637.984C1864.43 627.846 1716.31 618.292 1570.54 621.095C1479.56 622.858 1386.87 630.318 1297.23 637.536C1191.52 646.041 1082.21 654.84 971.816 654.84C865.93 654.84 748.758 642.25 635.441 630.075C506.041 616.181 383.753 603.045 276.579 606.91C160.13 611.102 46.5411 620.787 -63.3125 630.154C-213.635 642.968 -369.077 656.224 -537.958 656.224V652.401C-369.831 652.401 -214.763 639.181 -64.812 626.397C45.252 617.015 159.061 607.311 275.933 603.105C384.407 599.165 507.27 612.389 637.303 626.355C750.166 638.482 866.877 651.016 971.816 651.016C1081.5 651.016 1190.44 642.25 1295.81 633.773C1385.71 626.536 1478.68 619.052 1570.2 617.281C1716.7 614.427 1865.19 624.037 2022.37 634.202C2160.8 643.15 2303.94 652.401 2445.94 652.401V656.224Z" fill="url(#paint37_linear_119_71)"/>
<path d="M2436.94 680.411C2290.58 680.411 2146.91 666.978 2007.97 653.982C1857.99 639.966 1716.41 626.714 1579.2 630.412C1487.85 632.873 1399.27 642.824 1305.47 653.352C1197.94 665.43 1086.75 677.921 971.817 677.921C865.589 677.921 745.535 662.753 629.438 648.084C498.782 631.573 375.365 615.966 271.323 620.396C157.14 625.236 47.7894 637.182 -57.9541 648.736C-200.454 664.31 -347.797 680.411 -513.931 680.411V676.587C-348.754 676.587 -201.883 660.543 -59.8576 645.02C46.1684 633.433 155.81 621.454 270.578 616.591C376.171 612.133 500.211 627.805 631.604 644.4C747.176 658.999 866.686 674.098 971.817 674.098C1085.76 674.098 1196.47 661.666 1303.53 649.641C1393.55 639.532 1486.63 629.082 1578.71 626.597C1716.9 622.829 1859.07 636.165 2009.61 650.238C2148.16 663.196 2291.41 676.587 2436.94 676.587V680.411Z" fill="url(#paint38_linear_119_71)"/>
<path d="M2432.59 705.301C2281.32 705.301 2137.73 688.119 1998.88 671.509C1854.98 654.29 1719.16 638.063 1588.1 642.521C1496.36 645.672 1408.02 657.955 1314.48 670.954C1205.01 686.165 1091.81 701.901 971.816 701.901C864.743 701.901 741.839 684.481 622.993 667.634C491.23 648.965 366.754 631.33 265.088 636.072C152.627 641.318 46.6013 655.288 -55.9309 668.8C-192.106 686.743 -332.923 705.301 -496.63 705.301V701.477C-334.072 701.477 -193.818 682.998 -58.185 665.125C44.6877 651.571 151.077 637.554 264.263 632.267C367.682 627.506 492.84 645.197 625.411 663.983C743.683 680.747 865.972 698.078 971.817 698.078C1090.59 698.078 1203.2 682.43 1312.11 667.294C1406.08 654.233 1494.85 641.895 1587.49 638.715C1719.79 634.127 1856.35 650.508 2000.94 667.807C2139.29 684.36 2282.37 701.477 2432.59 701.477V705.301Z" fill="url(#paint39_linear_119_71)"/>
<path d="M2439.96 730.924C2284.46 730.924 2140.23 711.629 2000.74 692.973C1859.48 674.083 1726.01 656.276 1597.24 661.135C1504.64 664.655 1415.72 678.233 1321.58 692.604C1210.32 709.591 1095.28 727.16 971.816 727.16C863.494 727.16 738.285 708.449 617.193 690.357C483.968 670.452 358.135 651.665 256.71 656.566C144.652 662.007 44.4354 676.443 -61.6711 691.728C-195.439 710.995 -333.76 730.924 -496.823 730.924V727.1C-335.009 727.1 -197.294 707.264 -64.1171 688.081C37.6996 673.412 142.981 658.244 255.844 652.77C359.04 647.715 485.63 666.688 619.73 686.725C740.207 704.723 864.794 723.337 971.816 723.337C1093.97 723.337 1208.36 705.87 1319 688.977C1413.61 674.531 1502.99 660.883 1596.55 657.33C1726.99 652.341 1861.03 670.311 2003.03 689.303C2141.97 707.889 2285.63 727.1 2439.96 727.1V730.924Z" fill="url(#paint40_linear_119_71)"/>
<defs>
<linearGradient id="paint0_linear_119_71" x1="46.3701" y1="43.7911" x2="1897.28" y2="43.7911" gradientUnits="userSpaceOnUse">
<stop stop-color="#F126F7"/>
<stop offset="1" stop-color="#003CFF"/>
</linearGradient>
<linearGradient id="paint1_linear_119_71" x1="37.8511" y1="57.3535" x2="1905.78" y2="57.3535" gradientUnits="userSpaceOnUse">
<stop stop-color="#F126F7"/>
<stop offset="1" stop-color="#003CFF"/>
</linearGradient>
<linearGradient id="paint2_linear_119_71" x1="29.4111" y1="74.9151" x2="1914.21" y2="74.9151" gradientUnits="userSpaceOnUse">
<stop stop-color="#F126F7"/>
<stop offset="1" stop-color="#003CFF"/>
</linearGradient>
<linearGradient id="paint3_linear_119_71" x1="21.0942" y1="90.2135" x2="1922.5" y2="90.2135" gradientUnits="userSpaceOnUse">
<stop stop-color="#F126F7"/>
<stop offset="1" stop-color="#003CFF"/>
</linearGradient>
<linearGradient id="paint4_linear_119_71" x1="12.8862" y1="104.631" x2="1930.71" y2="104.631" gradientUnits="userSpaceOnUse">
<stop stop-color="#F126F7"/>
<stop offset="1" stop-color="#003CFF"/>
</linearGradient>
<linearGradient id="paint5_linear_119_71" x1="4.10742" y1="120.698" x2="1939.54" y2="120.698" gradientUnits="userSpaceOnUse">
<stop stop-color="#F126F7"/>
<stop offset="1" stop-color="#003CFF"/>
</linearGradient>
<linearGradient id="paint6_linear_119_71" x1="-5.35864" y1="136.503" x2="1949.02" y2="136.503" gradientUnits="userSpaceOnUse">
<stop stop-color="#F126F7"/>
<stop offset="1" stop-color="#003CFF"/>
</linearGradient>
<linearGradient id="paint7_linear_119_71" x1="-22.3557" y1="149.895" x2="1966.44" y2="149.895" gradientUnits="userSpaceOnUse">
<stop stop-color="#F126F7"/>
<stop offset="1" stop-color="#003CFF"/>
</linearGradient>
<linearGradient id="paint8_linear_119_71" x1="-45.3579" y1="164.034" x2="1990.22" y2="164.034" gradientUnits="userSpaceOnUse">
<stop stop-color="#F126F7"/>
<stop offset="1" stop-color="#003CFF"/>
</linearGradient>
<linearGradient id="paint9_linear_119_71" x1="-70.6931" y1="176.131" x2="2016.43" y2="176.131" gradientUnits="userSpaceOnUse">
<stop stop-color="#F126F7"/>
<stop offset="1" stop-color="#003CFF"/>
</linearGradient>
<linearGradient id="paint10_linear_119_71" x1="-94.6499" y1="188.475" x2="2041.17" y2="188.475" gradientUnits="userSpaceOnUse">
<stop stop-color="#F126F7"/>
<stop offset="1" stop-color="#003CFF"/>
</linearGradient>
<linearGradient id="paint11_linear_119_71" x1="-113.54" y1="201.108" x2="2060.56" y2="201.108" gradientUnits="userSpaceOnUse">
<stop stop-color="#F126F7"/>
<stop offset="1" stop-color="#003CFF"/>
</linearGradient>
<linearGradient id="paint12_linear_119_71" x1="-124.536" y1="213.988" x2="2071.54" y2="213.988" gradientUnits="userSpaceOnUse">
<stop stop-color="#F126F7"/>
<stop offset="1" stop-color="#003CFF"/>
</linearGradient>
<linearGradient id="paint13_linear_119_71" x1="-130.61" y1="227.136" x2="2077.23" y2="227.136" gradientUnits="userSpaceOnUse">
<stop stop-color="#F126F7"/>
<stop offset="1" stop-color="#003CFF"/>
</linearGradient>
<linearGradient id="paint14_linear_119_71" x1="-134.204" y1="228.873" x2="2080.21" y2="228.873" gradientUnits="userSpaceOnUse">
<stop stop-color="#F126F7"/>
<stop offset="1" stop-color="#003CFF"/>
</linearGradient>
<linearGradient id="paint15_linear_119_71" x1="-137.345" y1="238.909" x2="2082.7" y2="238.909" gradientUnits="userSpaceOnUse">
<stop stop-color="#F126F7"/>
<stop offset="1" stop-color="#003CFF"/>
</linearGradient>
<linearGradient id="paint16_linear_119_71" x1="-142.058" y1="249.202" x2="2086.86" y2="249.202" gradientUnits="userSpaceOnUse">
<stop stop-color="#F126F7"/>
<stop offset="1" stop-color="#003CFF"/>
</linearGradient>
<linearGradient id="paint17_linear_119_71" x1="-150.377" y1="262.265" x2="2094.89" y2="262.265" gradientUnits="userSpaceOnUse">
<stop stop-color="#F126F7"/>
<stop offset="1" stop-color="#003CFF"/>
</linearGradient>
<linearGradient id="paint18_linear_119_71" x1="-161.121" y1="281.085" x2="2105.58" y2="281.085" gradientUnits="userSpaceOnUse">
<stop stop-color="#F126F7"/>
<stop offset="1" stop-color="#003CFF"/>
</linearGradient>
<linearGradient id="paint19_linear_119_71" x1="-168.874" y1="305.762" x2="2113.18" y2="305.762" gradientUnits="userSpaceOnUse">
<stop stop-color="#F126F7"/>
<stop offset="1" stop-color="#003CFF"/>
</linearGradient>
<linearGradient id="paint20_linear_119_71" x1="-175.029" y1="327.579" x2="2119.12" y2="327.579" gradientUnits="userSpaceOnUse">
<stop stop-color="#F126F7"/>
<stop offset="1" stop-color="#003CFF"/>
</linearGradient>
<linearGradient id="paint21_linear_119_71" x1="-181.292" y1="343.251" x2="2125.16" y2="343.251" gradientUnits="userSpaceOnUse">
<stop stop-color="#F126F7"/>
<stop offset="1" stop-color="#003CFF"/>
</linearGradient>
<linearGradient id="paint22_linear_119_71" x1="-189.347" y1="359.291" x2="2133.05" y2="359.291" gradientUnits="userSpaceOnUse">
<stop stop-color="#F126F7"/>
<stop offset="1" stop-color="#003CFF"/>
</linearGradient>
<linearGradient id="paint23_linear_119_71" x1="-200.888" y1="373.704" x2="2144.53" y2="373.704" gradientUnits="userSpaceOnUse">
<stop stop-color="#F126F7"/>
<stop offset="1" stop-color="#003CFF"/>
</linearGradient>
<linearGradient id="paint24_linear_119_71" x1="-214.896" y1="384.233" x2="2158.53" y2="384.233" gradientUnits="userSpaceOnUse">
<stop stop-color="#F126F7"/>
<stop offset="1" stop-color="#003CFF"/>
</linearGradient>
<linearGradient id="paint25_linear_119_71" x1="-229.245" y1="394.567" x2="2172.89" y2="394.567" gradientUnits="userSpaceOnUse">
<stop stop-color="#F126F7"/>
<stop offset="1" stop-color="#003CFF"/>
</linearGradient>
<linearGradient id="paint26_linear_119_71" x1="-243.948" y1="411.307" x2="2187.59" y2="411.307" gradientUnits="userSpaceOnUse">
<stop stop-color="#F126F7"/>
<stop offset="1" stop-color="#003CFF"/>
</linearGradient>
<linearGradient id="paint27_linear_119_71" x1="-259.01" y1="421.913" x2="2202.65" y2="421.913" gradientUnits="userSpaceOnUse">
<stop stop-color="#F126F7"/>
<stop offset="1" stop-color="#003CFF"/>
</linearGradient>
<linearGradient id="paint28_linear_119_71" x1="-274.459" y1="434.896" x2="2218.1" y2="434.896" gradientUnits="userSpaceOnUse">
<stop stop-color="#F126F7"/>
<stop offset="1" stop-color="#003CFF"/>
</linearGradient>
<linearGradient id="paint29_linear_119_71" x1="-291.084" y1="452.32" x2="2234.45" y2="452.32" gradientUnits="userSpaceOnUse">
<stop stop-color="#F126F7"/>
<stop offset="1" stop-color="#003CFF"/>
</linearGradient>
<linearGradient id="paint30_linear_119_71" x1="-326.601" y1="474.827" x2="2263.41" y2="474.827" gradientUnits="userSpaceOnUse">
<stop stop-color="#F126F7"/>
<stop offset="1" stop-color="#003CFF"/>
</linearGradient>
<linearGradient id="paint31_linear_119_71" x1="-380.314" y1="492.673" x2="2304.54" y2="492.673" gradientUnits="userSpaceOnUse">
<stop stop-color="#F126F7"/>
<stop offset="1" stop-color="#003CFF"/>
</linearGradient>
<linearGradient id="paint32_linear_119_71" x1="-441.51" y1="524.609" x2="2350.74" y2="524.609" gradientUnits="userSpaceOnUse">
<stop stop-color="#F126F7"/>
<stop offset="1" stop-color="#003CFF"/>
</linearGradient>
<linearGradient id="paint33_linear_119_71" x1="-499.471" y1="557.273" x2="2394.97" y2="557.273" gradientUnits="userSpaceOnUse">
<stop stop-color="#F126F7"/>
<stop offset="1" stop-color="#003CFF"/>
</linearGradient>
<linearGradient id="paint34_linear_119_71" x1="-543.497" y1="569.505" x2="2430.15" y2="569.505" gradientUnits="userSpaceOnUse">
<stop stop-color="#F126F7"/>
<stop offset="1" stop-color="#003CFF"/>
</linearGradient>
<linearGradient id="paint35_linear_119_71" x1="-563.213" y1="590.998" x2="2449.47" y2="590.998" gradientUnits="userSpaceOnUse">
<stop stop-color="#F126F7"/>
<stop offset="1" stop-color="#003CFF"/>
</linearGradient>
<linearGradient id="paint36_linear_119_71" x1="-557.976" y1="610.923" x2="2452.49" y2="610.923" gradientUnits="userSpaceOnUse">
<stop stop-color="#F126F7"/>
<stop offset="1" stop-color="#003CFF"/>
</linearGradient>
<linearGradient id="paint37_linear_119_71" x1="-537.958" y1="629.312" x2="2445.94" y2="629.312" gradientUnits="userSpaceOnUse">
<stop stop-color="#F126F7"/>
<stop offset="1" stop-color="#003CFF"/>
</linearGradient>
<linearGradient id="paint38_linear_119_71" x1="-513.931" y1="648.116" x2="2436.94" y2="648.116" gradientUnits="userSpaceOnUse">
<stop stop-color="#F126F7"/>
<stop offset="1" stop-color="#003CFF"/>
</linearGradient>
<linearGradient id="paint39_linear_119_71" x1="-496.63" y1="668.392" x2="2432.59" y2="668.392" gradientUnits="userSpaceOnUse">
<stop stop-color="#F126F7"/>
<stop offset="1" stop-color="#003CFF"/>
</linearGradient>
<linearGradient id="paint40_linear_119_71" x1="-496.823" y1="691.434" x2="2439.96" y2="691.434" gradientUnits="userSpaceOnUse">
<stop stop-color="#F126F7"/>
<stop offset="1" stop-color="#003CFF"/>
</linearGradient>
</defs>
</svg>
