<svg width="1920" height="710" viewBox="0 0 1920 710" fill="none" xmlns="http://www.w3.org/2000/svg">
<g clip-path="url(#clip0_211_169)">
<path d="M631.987 126.42C583.52 126.42 535.375 118.329 501.601 104.359C436.629 77.4779 368.971 63.8532 300.485 63.8532H299.508C220.508 64.0023 137.492 82.2563 52.7551 118.103L46.3701 116.299C132.74 79.7591 217.891 61.1534 299.466 61H300.493C371.538 61 441.323 74.97 507.926 102.527C542.222 116.717 591.837 124.584 640.968 123.467C724.872 121.621 797.203 111.161 855.961 92.3852C920.551 71.7345 1019.92 71.5747 1082.23 92.0015C1143.26 112.011 1219.32 121.45 1308.84 120.196C1356.31 119.503 1402.5 111.997 1435.57 99.6081C1505.2 73.5141 1576.71 60.659 1648.81 61.4601C1730.3 62.3517 1813.9 80.8005 1897.28 116.302L1890.88 118.099C1809.08 83.2699 1727.54 65.1764 1648.55 64.3126C1579.39 63.5879 1509.58 76.0813 1441.63 101.545C1407.09 114.484 1358.81 122.32 1309.18 123.045C1217.47 124.327 1139.26 114.634 1076.55 94.0707C1017.39 74.6675 922.958 74.8551 861.561 94.4816C801.374 113.714 727.338 124.425 641.492 126.315C638.33 126.385 635.159 126.42 631.987 126.42Z" fill="url(#paint0_linear_211_169)"/>
<path d="M623.971 133.49C577.538 133.49 532.868 126.741 500.714 114.797C433.248 89.7447 363.31 77.0429 292.832 77.0429C292.368 77.0429 291.904 77.0429 291.442 77.0465C211.688 77.2341 128.43 93.6735 43.9739 125.905L37.8511 123.989C123.928 91.1413 209.232 74.3852 291.391 74.1904H292.832C365.698 74.1904 437.657 87.1953 506.757 112.854C538.467 124.633 583.018 131.115 628.865 130.613C718.79 129.642 796.62 119.043 860.191 99.1139C922.393 79.6165 1018.8 79.578 1079.7 99.0197C1144.79 119.799 1225.26 129.457 1318.68 127.712C1363.72 126.876 1405.93 120.537 1437.55 109.859C1509.16 85.6838 1582.87 73.863 1656.27 74.5942C1738.25 75.4615 1822.19 92.0821 1905.78 123.989L1899.66 125.905C1817.64 94.593 1735.67 78.2898 1656.02 77.4466C1585.05 76.6941 1513.25 88.2824 1443.31 111.9C1410.26 123.062 1366.16 129.687 1319.12 130.561C1223.14 132.324 1140.88 122.429 1074.1 101.117C1016.29 82.6609 924.771 82.7129 865.731 101.225C800.669 121.624 721.065 132.473 629.127 133.462C627.405 133.484 625.683 133.49 623.971 133.49Z" fill="url(#paint1_linear_211_169)"/>
<path d="M618.503 140.707C614.294 140.707 610.064 140.686 605.814 140.644C567.811 140.292 529.817 135.207 498.831 126.319C350.168 83.7121 194.055 86.2586 34.8083 133.918L29.4111 131.759C192.182 83.0573 351.89 80.4872 504.087 124.125C533.674 132.605 569.876 137.457 606.036 137.795C705.073 138.742 792.289 128.666 865.225 107.932C927.548 90.2152 1014.32 90.288 1076.28 108.096C1151.49 129.718 1242.08 138.742 1345.58 134.943C1378.33 133.737 1410.72 129.15 1439.26 121.676C1594.47 81.0165 1754.29 84.4161 1914.21 131.756L1908.85 133.922C1752.25 87.571 1595.94 84.2207 1444.24 123.954C1414.51 131.738 1380.7 136.521 1346.45 137.777C1240.7 141.686 1148.01 132.42 1071.01 110.29C1012.14 93.3666 929.673 93.3074 870.463 110.133C799.086 130.432 714.378 140.707 618.503 140.707Z" fill="url(#paint2_linear_211_169)"/>
<path d="M621.766 147.923C607.033 147.923 592.12 147.7 577.005 147.248C551.789 146.495 527.763 144.015 507.493 140.076C350.249 109.493 187.963 110.183 25.1631 142.124L21.0942 139.644C186.573 107.17 351.589 106.48 511.539 137.59C530.784 141.33 553.662 143.688 577.709 144.405C683.726 147.554 780.014 139.453 864.26 120.304C930.046 105.351 1012.16 105.01 1073.45 119.423C1161.39 140.097 1262.74 147.609 1374.74 141.723C1394.14 140.707 1414.09 138.429 1434.05 134.949C1594.97 106.884 1759.29 108.465 1922.5 139.634L1918.51 142.135C1757.83 111.439 1596.09 109.876 1437.75 137.499C1417.02 141.114 1396.23 143.482 1375.97 144.545C1261.87 150.535 1158.52 142.873 1068.82 121.784C1010.28 108.019 931.778 108.375 868.791 122.686C794.988 139.463 712.052 147.923 621.766 147.923Z" fill="url(#paint3_linear_211_169)"/>
<path d="M624.827 155.057C597.346 155.057 569.422 154.384 541.105 153.044C533.786 152.699 525.971 152.11 517.219 151.243C351.489 134.807 182.525 134.549 15.0827 150.459L12.8862 147.708C181.801 131.651 352.254 131.913 519.496 148.499C527.862 149.327 535.295 149.892 542.222 150.216C660.655 155.83 772.009 149.522 873.203 131.467C934.74 120.489 1008.04 120.517 1069.27 131.533C1172.34 150.073 1285.97 155.666 1407 148.133C1411.61 147.847 1416.25 147.474 1420.79 147.073C1589.68 132.15 1761.23 132.365 1930.71 147.704L1928.61 150.462C1760.52 135.243 1590.32 135.034 1422.83 149.839C1418.1 150.253 1413.26 150.64 1408.47 150.94C1285.58 158.585 1170.18 152.904 1065.47 134.061C1006.59 123.474 936.128 123.449 876.989 134.002C798.462 148.011 713.936 155.057 624.827 155.057Z" fill="url(#paint4_linear_211_169)"/>
<path d="M611.686 161.615C562.242 161.615 514.662 159.908 454.675 156.31C301.814 147.136 141.683 152.448 5.2148 158.856L4.10742 156.028C141.198 149.602 302.117 144.27 456.086 153.496C553.362 159.337 617.687 160.155 711.016 156.756C744.336 155.541 781.374 152.517 820.587 149.313C872.427 145.078 926.029 140.696 971.817 140.696C1019.71 140.696 1068.44 144.364 1115.56 147.909C1132.43 149.177 1149.87 150.49 1166.8 151.591C1278.09 158.849 1349.65 160.545 1504.82 152.305C1627.02 145.816 1831.76 150.974 1939.54 156.028L1938.43 158.856C1831.11 153.83 1627.41 148.686 1506.07 155.126C1349.69 163.426 1277.55 161.702 1165.27 154.398C1148.23 153.287 1130.74 151.971 1113.81 150.696C1067.11 147.185 1018.82 143.552 971.817 143.552C926.996 143.552 873.867 147.892 822.48 152.089C783.005 155.314 745.716 158.362 711.882 159.591C675.288 160.925 643.103 161.615 611.686 161.615Z" fill="url(#paint5_linear_211_169)"/>
<path d="M1458.76 169.476C1405.72 169.476 1352.75 169.253 1300.37 168.664C1250.24 168.104 1199.75 166.038 1150.92 164.039C1093.97 161.709 1035.1 159.302 976.972 159.302C912.193 159.302 846.215 161.542 782.411 163.705C730.249 165.477 676.315 167.306 623.084 167.919C489.477 169.465 352.537 168.79 220.096 168.132C146.405 167.769 70.2048 167.393 -5.35864 167.393V164.537C70.2667 164.541 146.496 164.917 220.218 165.279C352.565 165.93 489.417 166.602 622.804 165.07C675.781 164.46 729.574 162.632 781.607 160.866C845.611 158.693 911.791 156.446 976.972 156.446C1035.58 156.446 1094.71 158.867 1151.89 161.208C1200.54 163.196 1250.85 165.255 1300.63 165.815C1433.29 167.299 1569.78 166.428 1701.75 165.589C1782.61 165.074 1866.22 164.541 1949.02 164.537V167.393C1866.29 167.393 1782.73 167.926 1701.91 168.441C1621.9 168.953 1540.24 169.476 1458.76 169.476Z" fill="url(#paint6_linear_211_169)"/>
<path d="M1335.99 176.107C1273.61 176.107 1210.8 175.233 1150.04 174.386C1089.5 173.547 1026.89 172.676 964.95 172.676C899.021 172.676 831.482 173.547 766.179 174.386C700.624 175.233 632.844 176.107 566.433 176.107H566.241L-22.3557 176.082V173.226L566.241 173.251H566.433C632.693 173.251 700.393 172.38 765.867 171.537C831.251 170.695 898.871 169.82 964.95 169.82C1027.06 169.82 1089.75 170.695 1150.38 171.537C1211.05 172.38 1273.78 173.251 1335.99 173.251H1336.17L1966.44 173.226V176.082L1336.17 176.107H1335.99Z" fill="url(#paint7_linear_211_169)"/>
<path d="M901.035 184.957C586.651 184.957 272.128 184.953 -45.3579 184.95V182.094C637.646 182.104 1307.17 182.104 1990.22 182.094V184.95C1624.69 184.953 1262.97 184.957 901.035 184.957Z" fill="url(#paint8_linear_211_169)"/>
<path d="M2016.43 193.995C1319.25 193.971 626.65 193.971 -70.6931 193.995V191.139C626.65 191.122 1319.27 191.122 2016.43 191.139V193.995Z" fill="url(#paint9_linear_211_169)"/>
<path d="M2041.17 203.225C1328.47 203.176 618.311 203.176 -94.6499 203.225V200.369C618.301 200.328 1328.48 200.328 2041.17 200.369V203.225Z" fill="url(#paint10_linear_211_169)"/>
<path d="M2060.56 209.79H-113.54V212.646H2060.56V209.79Z" fill="url(#paint11_linear_211_169)"/>
<path d="M2071.54 219.41H-124.536V222.266H2071.54V219.41Z" fill="url(#paint12_linear_211_169)"/>
<path d="M2077.23 229.231H-130.61V232.087H2077.23V229.231Z" fill="url(#paint13_linear_211_169)"/>
<path d="M969.854 242.119C881.189 242.119 796.701 237.654 714.963 233.335C643.023 229.535 568.648 225.606 492.459 224.812C384.286 223.715 280.073 228.323 169.768 233.227C71.5048 237.598 -30.0997 242.119 -134.204 242.119V239.263C-30.6235 239.263 70.7188 234.756 168.72 230.399C274.464 225.697 383.814 220.821 492.701 221.963C569.392 222.761 644.032 226.703 716.203 230.514C797.638 234.818 881.832 239.266 969.854 239.266C970.508 239.266 971.153 239.266 971.807 239.263C1049.25 239.207 1123.4 235.815 1195.12 232.534C1245.83 230.214 1298.26 227.815 1351.87 226.578C1496.82 223.231 1622.28 227.55 1755.06 232.116C1857.19 235.63 1962.79 239.263 2080.21 239.263V242.119C1962.38 242.119 1856.57 238.476 1754.24 234.958C1621.81 230.402 1496.79 226.108 1352.41 229.427C1299.08 230.656 1246.78 233.049 1196.2 235.362C1124.22 238.657 1049.79 242.06 971.828 242.119H969.854Z" fill="url(#paint14_linear_211_169)"/>
<path d="M969.934 252.369C878.317 252.369 792.32 246.462 709.122 240.747C633.175 235.532 554.65 230.138 473.628 229.476C369.908 228.685 272.591 234.421 169.576 240.551C71.9267 246.361 -29.0527 252.369 -137.345 252.369V249.513C-29.758 249.513 70.8707 243.529 168.175 237.737C271.594 231.586 369.241 225.739 473.828 226.627C555.555 227.292 634.443 232.708 710.733 237.95C793.529 243.637 879.134 249.517 969.944 249.517C970.569 249.517 971.181 249.517 971.806 249.513C1053.2 249.44 1128.63 244.972 1201.55 240.649C1253.98 237.542 1308.18 234.331 1364.82 232.704C1514.6 228.407 1631.16 233.979 1754.6 239.876C1853.8 244.613 1956.37 249.513 2082.7 249.513V252.369C1955.81 252.369 1852.95 247.455 1753.47 242.7C1630.5 236.828 1514.36 231.27 1365.51 235.547C1309.23 237.162 1255.19 240.366 1202.95 243.463C1129.68 247.803 1053.92 252.292 971.827 252.369H969.934Z" fill="url(#paint15_linear_211_169)"/>
<path d="M970.89 262.838C876.091 262.838 787.979 255.451 702.747 248.304C619.811 241.348 541.457 234.78 456.77 234.324C355.526 233.805 264.494 240.673 168.025 247.98C71.5945 255.284 -28.127 262.838 -142.058 262.838V259.982C-29.0241 259.982 70.256 252.466 166.263 245.194C263.215 237.852 354.772 230.991 456.89 231.468C542.515 231.934 624.958 238.845 704.692 245.532C789.439 252.637 877.079 259.982 970.89 259.982H971.806C1057.33 259.941 1134.18 254.532 1208.5 249.3C1262.32 245.514 1317.97 241.596 1377.33 239.628C1534.56 234.421 1642.23 241.039 1756.2 248.057C1851.52 253.918 1950.08 259.982 2086.86 259.982V262.838C1949.35 262.838 1850.43 256.75 1754.75 250.864C1641.37 243.891 1534.25 237.302 1378.12 242.471C1319.19 244.421 1263.75 248.325 1210.15 252.097C1135.43 257.356 1058.17 262.793 971.827 262.838H970.89Z" fill="url(#paint16_linear_211_169)"/>
<path d="M975.23 273.541H971.807C874.017 273.475 784.014 265.597 696.969 257.976C612.059 250.544 531.852 243.525 444.978 243.132C343.273 242.637 256.037 249.896 163.242 257.544C67.8499 265.409 -30.7847 273.541 -150.377 273.541V270.685C-31.7623 270.685 66.3998 262.595 161.329 254.769C254.626 247.078 342.858 239.831 445.079 240.276C532.938 240.677 617.355 248.063 698.992 255.211C785.554 262.786 875.055 270.622 971.827 270.685C972.955 270.689 974.102 270.689 975.23 270.689C1126.58 270.689 1237.01 263.859 1387.11 251.3C1558.09 236.985 1662.88 245.682 1784.23 255.744C1872.81 263.089 1964.42 270.685 2094.89 270.685V273.541C1963.44 273.541 1867.2 265.559 1782.31 258.52C1661.99 248.541 1558.11 239.928 1389.05 254.072C1238.34 266.683 1127.4 273.541 975.23 273.541Z" fill="url(#paint17_linear_211_169)"/>
<path d="M2105.58 284.481C1984.6 284.481 1892.43 278.337 1803.3 272.399C1675.16 263.859 1564.48 256.482 1399.69 269.198C1244.37 281.183 1121.41 283.624 973.871 283.624H971.737C864.352 283.607 766.825 277.627 672.508 271.848C595.342 267.118 515.549 262.229 430.912 260.647C326.084 258.673 232.201 265.074 132.72 271.835C41.2258 278.051 -53.3815 284.481 -161.121 284.481V281.625C-54.1879 281.625 40.0272 275.227 131.128 269.034C231.134 262.242 325.539 255.81 431.355 257.798C516.496 259.39 596.541 264.294 673.948 269.038C767.911 274.798 865.075 280.751 971.737 280.768H973.871C1120.86 280.768 1243.3 278.341 1397.9 266.412C1564.37 253.57 1681.18 261.358 1804.86 269.595C1893.61 275.513 1985.39 281.625 2105.58 281.625V284.481Z" fill="url(#paint18_linear_211_169)"/>
<path d="M970.106 298.844C867.895 298.844 769.623 294.749 674.573 290.792C593.48 287.413 509.628 283.92 423.964 283.004C318.511 281.886 220.551 285.369 116.859 289.064C25.8076 292.311 -68.3455 295.668 -168.874 295.668V292.812C-68.7684 292.812 25.1724 289.465 116.014 286.229C219.986 282.523 318.179 279.005 424.225 280.155C510.251 281.071 594.286 284.571 675.561 287.957C770.367 291.906 868.39 295.988 970.106 295.988H971.434C1126.72 295.933 1252.97 294.219 1402.29 285.874C1565.31 276.759 1693.77 281.426 1829.8 286.369C1917.07 289.538 2007.3 292.812 2113.18 292.812V295.668C2006.87 295.668 1916.42 292.38 1828.94 289.203C1693.5 284.29 1565.56 279.647 1403.6 288.688C1253.74 297.068 1127.15 298.785 971.434 298.844H970.106Z" fill="url(#paint19_linear_211_169)"/>
<path d="M2119.12 304.258H-175.029V307.114H2119.12V304.258Z" fill="url(#paint20_linear_211_169)"/>
<path d="M2125.16 315.964H-181.292V318.82H2125.16V315.964Z" fill="url(#paint21_linear_211_169)"/>
<path d="M2133.05 327.945H-189.347V330.801H2133.05V327.945Z" fill="url(#paint22_linear_211_169)"/>
<path d="M1584.49 348.922C1483.6 348.922 1381.39 345.171 1282.53 341.545C1184.17 337.94 1082.46 334.211 982.572 334.211C870.625 334.211 756.603 337.938 646.326 341.542C535.337 345.168 420.568 348.922 307.161 348.922C223.086 348.922 137.352 347.439 54.436 346.004C-29.1251 344.558 -115.524 343.064 -200.888 343.064V340.208C-115.314 340.208 -28.8119 341.706 54.8482 343.155C137.663 344.586 223.299 346.066 307.161 346.066C420.177 346.066 534.751 342.322 645.551 338.7C756.017 335.088 870.241 331.354 982.572 331.354C1082.9 331.354 1184.84 335.095 1283.41 338.711C1382.05 342.326 1484.03 346.066 1584.49 346.066C1677.01 346.066 1771.44 344.586 1862.75 343.151C1954.93 341.706 2050.26 340.208 2144.53 340.208V343.064C2050.44 343.064 1955.22 344.558 1863.13 346.004C1771.72 347.439 1677.19 348.922 1584.49 348.922Z" fill="url(#paint23_linear_211_169)"/>
<path d="M375.283 364.759C276.517 364.759 177.399 362.447 81.0908 360.204C-15.5908 357.95 -115.566 355.621 -214.896 355.621V352.764C-115.294 352.764 -15.1678 355.098 81.6538 357.355C193.25 359.957 308.61 362.628 422.684 361.719C512.345 360.987 604.999 353.538 694.611 346.331C786.176 338.969 880.855 331.355 970.226 331.247H971.735C1050.27 331.247 1137.14 338.613 1221.18 345.736C1284.1 351.072 1349.18 356.588 1409.04 358.807C1563.52 364.523 1718.66 360.862 1868.7 357.313C1963.23 355.077 2060.97 352.764 2158.53 352.764V355.621C2061.25 355.621 1963.65 357.926 1869.27 360.159C1718.89 363.714 1563.4 367.396 1408.16 361.642C1347.76 359.406 1282.4 353.865 1219.21 348.508C1135.66 341.424 1049.27 334.1 971.735 334.1C971.242 334.1 970.747 334.1 970.244 334.103C881.82 334.207 787.597 341.786 696.473 349.111C606.459 356.348 513.382 363.833 422.883 364.568C407.034 364.7 391.163 364.759 375.283 364.759Z" fill="url(#paint24_linear_211_169)"/>
<path d="M352.707 376.995C255.3 376.995 157.521 374.843 62.3903 372.749C-32.9715 370.649 -131.585 368.479 -229.245 368.479V365.623C-131.324 365.623 -32.5774 367.8 62.9142 369.9C178.689 372.449 298.429 375.072 416.39 373.812C507.965 372.819 604.515 363.06 697.895 353.621C794.263 343.88 885.285 334.677 970.548 334.451H972.812C1045.87 334.451 1131.91 343.698 1215.16 352.65C1282.53 359.894 1352.21 367.382 1413.88 369.817C1572.03 376.058 1734.52 372.711 1891.67 369.486C1983.95 367.588 2079.38 365.623 2172.89 365.623V368.479C2079.62 368.479 1984.33 370.436 1892.16 372.331C1734.68 375.57 1571.8 378.925 1412.95 372.652C1350.51 370.189 1280.45 362.656 1212.71 355.373C1130.06 346.488 1044.61 337.304 972.812 337.304C972.068 337.304 971.344 337.304 970.608 337.307C886.504 337.53 796.006 346.676 700.2 356.362C606.338 365.849 509.275 375.661 416.652 376.661C395.373 376.89 374.046 376.995 352.707 376.995Z" fill="url(#paint25_linear_211_169)"/>
<path d="M318.227 390.521C223.69 390.521 126.738 388.251 31.8773 386.028C-59.9991 383.876 -154.99 381.651 -243.948 381.651V378.795C-154.717 378.795 -59.5763 381.024 32.4321 383.179C177.046 386.575 326.585 390.079 464.433 385.44C548.062 382.633 625.832 374.03 701.035 365.709C791.261 355.727 876.474 346.299 971.172 345.943C1067.28 345.518 1157.59 354.978 1253.03 364.929C1327.02 372.64 1403.53 380.616 1482.68 383.514C1625.88 388.745 1776.53 385.593 1922.23 382.535C2009.87 380.696 2100.5 378.795 2187.59 378.795V381.651C2100.75 381.651 2010.25 383.549 1922.72 385.384C1776.69 388.442 1625.69 391.622 1481.82 386.349C1401.89 383.427 1325.01 375.413 1250.64 367.659C1155.82 357.775 1066.58 348.441 971.252 348.8C877.813 349.148 793.165 358.513 703.553 368.426C627.928 376.792 549.735 385.443 465.237 388.282C417.364 389.888 368.123 390.521 318.227 390.521Z" fill="url(#paint26_linear_211_169)"/>
<path d="M271.674 401.737C181.598 401.737 89.2272 400.041 -1.37267 398.376C-91.5271 396.719 -176.689 395.154 -259.01 395.154V392.299C-176.468 392.299 -91.2053 393.866 -0.929277 395.527C153.534 398.362 313.232 401.305 457.252 395.729C544.691 392.348 623.517 382.488 699.746 372.948C789.903 361.67 875.054 351.019 971.474 350.57C973.398 350.563 975.33 350.56 977.254 350.56C1071.53 350.56 1160.72 361.176 1255.05 372.408C1330.05 381.334 1407.61 390.568 1488.22 394.005C1639 400.442 1799.65 397.729 1955.01 395.113C2037.01 393.73 2121.8 392.299 2202.65 392.299V395.154C2122 395.154 2037.31 396.582 1955.42 397.962C1799.7 400.595 1638.68 403.301 1487.22 396.841C1405.75 393.365 1327.78 384.083 1252.36 375.104C1156.82 363.729 1066.93 353.008 971.575 353.426C876.555 353.865 792.037 364.439 702.557 375.633C625.864 385.225 546.574 395.144 458.178 398.565C398.163 400.884 335.487 401.737 271.674 401.737Z" fill="url(#paint27_linear_211_169)"/>
<path d="M225.776 413.83C140.101 413.83 52.5531 412.576 -33.4643 411.347C-117.931 410.138 -197.705 408.996 -274.459 408.996V406.14C-197.534 406.14 -117.669 407.286 -33.1219 408.495C130.333 410.832 299.368 413.249 450.012 406.98C540.552 403.207 620.467 392.448 697.752 382.046C788.202 369.869 873.625 358.368 971.686 357.878C973.588 357.87 975.512 357.863 977.416 357.863C1072.06 357.863 1162.11 369.503 1257.35 381.812C1333.45 391.647 1412.14 401.818 1494.12 405.656C1651.5 413.026 1820.61 410.65 1984.13 408.355C2061.7 407.269 2141.91 406.14 2218.1 406.14V408.996C2142.08 408.996 2061.95 410.121 1984.46 411.207C1820.55 413.506 1651.1 415.889 1493.02 408.484C1410.12 404.601 1330.99 394.375 1254.46 384.483C1158.04 372.022 1066.79 360.239 971.806 360.734C875.236 361.214 790.476 372.624 700.745 384.703C622.985 395.172 542.575 405.998 451 409.814C379.15 412.807 303.234 413.83 225.776 413.83Z" fill="url(#paint28_linear_211_169)"/>
<path d="M199.613 427.374C115.317 427.374 29.4113 426.288 -55.0758 425.219C-137.758 424.17 -215.852 423.184 -291.084 423.184V420.328C-215.7 420.328 -137.528 421.321 -54.7727 422.366C113.748 424.505 287.967 426.709 443.154 420.189C535.043 416.334 616.016 405.418 694.318 394.861C785.914 382.518 872.426 370.854 971.756 370.356C1069.57 369.99 1162.38 381.957 1260.8 394.757C1337.91 404.788 1417.63 415.156 1500.56 419.078C1662.03 426.719 1835.64 424.49 2003.53 422.331C2080.09 421.345 2159.25 420.328 2234.45 420.328V423.184C2159.41 423.184 2080.32 424.198 2003.84 425.18C1835.58 427.343 1661.61 429.575 1499.43 421.906C1415.6 417.939 1335.43 407.512 1257.9 397.428C1160.23 384.726 1067.96 372.71 971.876 373.212C874.037 373.699 788.191 385.27 697.311 397.523C618.532 408.141 537.066 419.12 444.142 423.025C366.292 426.291 283.757 427.374 199.613 427.374Z" fill="url(#paint29_linear_211_169)"/>
<path d="M1806.45 440.498C1705.12 440.498 1604.11 439.304 1506.31 435.33C1423.78 431.976 1343.09 423.153 1265.05 414.623C1164.49 403.631 1069.58 393.155 971.875 393.719C873.22 394.193 783.608 403.99 688.729 414.362C609.219 423.056 526.998 432.045 437.293 435.385C265.461 441.79 76.9725 440.324 -105.355 438.906C-182.43 438.307 -255.224 437.743 -326.601 437.743V434.887C-255.133 434.887 -182.288 435.455 -105.163 436.054C76.8406 437.461 265.079 438.93 436.408 432.55C525.294 429.238 607.113 420.294 686.242 411.642C781.715 401.204 871.892 391.344 971.756 390.863C1070.98 390.372 1166.33 400.838 1267.54 411.904C1345.21 420.391 1425.53 429.172 1507.28 432.494C1679.41 439.488 1861.9 437.851 2038.41 436.253C2112.77 435.584 2189.66 434.887 2263.41 434.887V437.743C2189.76 437.743 2112.93 438.436 2038.62 439.105C1961.93 439.798 1884.1 440.498 1806.45 440.498Z" fill="url(#paint30_linear_211_169)"/>
<path d="M2149.67 452.71C1958.45 452.71 1762.67 452.26 1570.5 448.018C1486.97 446.172 1387.31 436.995 1290.93 428.117C1177.98 417.717 1061.19 406.951 971.987 408.26C879.797 409.609 788.131 417.483 691.086 425.822C588.453 434.637 482.336 443.755 372.998 444.842C285.318 445.716 196.835 446.949 111.261 448.137C-49.1837 450.369 -215.077 452.678 -380.314 452.678V449.822C-215.248 449.822 -49.4251 447.517 110.928 445.288C196.521 444.097 285.036 442.863 372.757 441.992C481.208 440.913 586.894 431.833 689.092 423.053C786.56 414.679 878.62 406.77 971.645 405.411C1062.16 404.053 1179.51 414.906 1293.06 425.362C1389.05 434.202 1488.31 443.344 1571.03 445.169C1788.78 449.976 2011.28 449.896 2226.62 449.839L2304.54 449.822V452.678L2226.62 452.692C2201.08 452.703 2175.4 452.71 2149.67 452.71Z" fill="url(#paint31_linear_211_169)"/>
<path d="M2350.74 468.01C2155.55 468.01 1958.52 465.307 1767.95 462.695C1704.91 461.832 1641.79 460.964 1578.53 460.187C1492.9 459.14 1398.95 454.769 1308.08 450.54C1193.95 445.235 1075.87 439.757 971.917 440.659C764.084 442.498 550.762 448.276 344.459 453.866C87.8159 460.818 -177.555 468.01 -441.51 468.01V465.154C-177.879 465.154 87.3334 457.969 343.814 451.021C550.217 445.431 763.659 439.649 971.715 437.81C1076.3 436.873 1194.72 442.386 1309.18 447.712C1399.85 451.93 1493.61 456.294 1578.83 457.339C1642.09 458.112 1705.22 458.979 1768.29 459.843C1958.76 462.455 2155.73 465.154 2350.74 465.154V468.01Z" fill="url(#paint32_linear_211_169)"/>
<path d="M2394.97 483.75C2163.26 483.75 1928.94 481.165 1702.35 478.665C1462.96 476.024 1215.54 473.304 971.836 473.642C735.302 473.976 498.045 476.355 268.603 478.654C18.8375 481.158 -239.425 483.75 -499.471 483.75V480.894C-239.547 480.894 18.6561 478.306 268.36 475.801C497.855 473.502 735.162 471.124 971.795 470.786C1215.63 470.483 1463.13 473.171 1702.61 475.815C1929.14 478.312 2163.38 480.894 2394.97 480.894V483.75Z" fill="url(#paint33_linear_211_169)"/>
<path d="M2430.15 499.92C2192.38 499.92 1953.43 499.474 1722.35 499.042C1477.21 498.582 1223.69 498.123 971.817 498.175H970.912C850.445 498.175 730.874 492.397 615.232 486.81C511.057 481.781 403.35 476.577 297.566 475.821C159.607 474.763 11.3071 481.373 -132.21 487.705C-268.416 493.71 -409.244 499.92 -543.497 499.92V497.064C-409.767 497.064 -269.202 490.868 -133.257 484.874C10.5709 478.531 159.324 471.973 297.726 472.965C404.004 473.729 511.964 478.942 616.369 483.986C731.73 489.558 851.029 495.319 970.912 495.319H971.817C1223.82 495.277 1477.25 495.733 1722.4 496.19C1953.47 496.618 2192.4 497.064 2430.15 497.064V499.92Z" fill="url(#paint34_linear_211_169)"/>
<path d="M971.816 516.565C850.686 516.565 729.856 510.024 613.015 503.703C506.383 497.931 396.138 491.965 288.623 491.266C149.948 490.311 0.279391 497.152 -144.395 503.723C-283.077 510.021 -426.475 516.533 -563.213 516.533V513.678C-427.007 513.678 -283.884 507.179 -145.473 500.892C-0.485875 494.309 149.416 487.511 288.784 488.409C396.853 489.116 507.392 495.097 614.284 500.881C730.824 507.189 851.329 513.709 971.816 513.709L2449.47 513.678V516.533L971.816 516.565Z" fill="url(#paint35_linear_211_169)"/>
<path d="M2452.49 533.611C2312.64 533.611 2170.45 529.342 2032.98 525.217C1877.33 520.544 1716.46 515.709 1562.15 517.311C1472.47 518.238 1381.16 521.738 1292.85 525.123C1188.09 529.139 1079.76 533.291 971.817 533.291C850.383 533.291 728.991 525.694 611.595 518.349C502.89 511.547 390.5 504.515 281.725 503.944C147.835 503.265 2.36495 511.004 -138.18 518.516C-277.005 525.935 -420.562 533.611 -557.976 533.611V530.755C-421.197 530.755 -277.963 523.1 -139.441 515.695C1.44905 508.165 147.272 500.433 281.844 501.088C391.296 501.666 504.039 508.719 613.055 515.542C730.098 522.863 851.12 530.435 971.817 530.435C1079.3 530.435 1187.4 526.294 1291.94 522.288C1380.41 518.896 1471.9 515.392 1561.9 514.462C1716.63 512.843 1877.81 517.698 2033.68 522.375C2171 526.495 2312.98 530.755 2452.49 530.755V533.611Z" fill="url(#paint36_linear_211_169)"/>
<path d="M2445.94 551.167C2303.35 551.167 2159.94 544.24 2021.23 537.542C1864.43 529.97 1716.31 522.833 1570.54 524.927C1479.56 526.244 1386.87 531.816 1297.23 537.208C1191.52 543.561 1082.21 550.133 971.816 550.133C865.93 550.133 748.758 540.729 635.441 531.635C506.041 521.256 383.753 511.445 276.579 514.332C160.13 517.463 46.5412 524.697 -63.3125 531.694C-213.635 541.265 -369.077 551.167 -537.958 551.167V548.311C-369.831 548.311 -214.763 538.437 -64.812 528.887C45.252 521.88 159.061 514.631 275.933 511.49C384.407 508.547 507.27 518.425 637.303 528.856C750.166 537.915 866.877 547.277 971.816 547.277C1081.5 547.277 1190.44 540.729 1295.81 534.397C1385.71 528.991 1478.68 523.401 1570.2 522.078C1716.7 519.947 1865.19 527.125 2022.37 534.718C2160.8 541.401 2303.94 548.311 2445.94 548.311V551.167Z" fill="url(#paint37_linear_211_169)"/>
<path d="M2436.94 569.234C2290.58 569.234 2146.91 559.2 2007.97 549.493C1857.99 539.024 1716.41 529.125 1579.2 531.887C1487.85 533.726 1399.27 541.159 1305.47 549.023C1197.94 558.044 1086.75 567.374 971.817 567.374C865.589 567.374 745.535 556.044 629.438 545.087C498.782 532.754 375.365 521.097 271.323 524.406C157.14 528.021 47.7894 536.944 -57.9541 545.575C-200.454 557.208 -347.797 569.234 -513.931 569.234V566.378C-348.754 566.378 -201.883 554.394 -59.8576 542.799C46.1684 534.144 155.81 525.196 270.578 521.563C376.171 518.234 500.211 529.94 631.604 542.336C747.176 553.24 866.686 564.518 971.817 564.518C1085.76 564.518 1196.47 555.233 1303.53 546.251C1393.55 538.7 1486.63 530.894 1578.71 529.038C1716.9 526.224 1859.07 536.185 2009.61 546.697C2148.16 556.375 2291.41 566.378 2436.94 566.378V569.234Z" fill="url(#paint38_linear_211_169)"/>
<path d="M2432.59 587.826C2281.32 587.826 2137.73 574.991 1998.88 562.585C1854.98 549.723 1719.16 537.602 1588.1 540.932C1496.36 543.286 1408.02 552.46 1314.48 562.171C1205.01 573.532 1091.81 585.286 971.816 585.286C864.743 585.286 741.839 572.274 622.993 559.69C491.23 545.745 366.754 532.573 265.088 536.115C152.627 540.033 46.6013 550.468 -55.9309 560.561C-192.106 573.964 -332.923 587.826 -496.63 587.826V584.97C-334.072 584.97 -193.818 571.167 -58.185 557.817C44.6877 547.692 151.077 537.222 264.263 533.273C367.682 529.717 492.84 542.931 625.411 556.963C743.683 569.485 865.972 582.43 971.817 582.43C1090.59 582.43 1203.2 570.742 1312.11 559.436C1406.08 549.681 1494.85 540.465 1587.49 538.09C1719.79 534.662 1856.35 546.898 2000.94 559.82C2139.29 572.184 2282.37 584.97 2432.59 584.97V587.826Z" fill="url(#paint39_linear_211_169)"/>
</g>
<rect width="1920" height="533" fill="url(#paint40_linear_211_169)"/>
<defs>
<linearGradient id="paint0_linear_211_169" x1="46.3701" y1="93.7098" x2="1897.28" y2="93.7098" gradientUnits="userSpaceOnUse">
<stop stop-color="#F126F7"/>
<stop offset="1" stop-color="#003CFF"/>
</linearGradient>
<linearGradient id="paint1_linear_211_169" x1="37.8511" y1="103.84" x2="1905.78" y2="103.84" gradientUnits="userSpaceOnUse">
<stop stop-color="#F126F7"/>
<stop offset="1" stop-color="#003CFF"/>
</linearGradient>
<linearGradient id="paint2_linear_211_169" x1="29.4111" y1="116.958" x2="1914.21" y2="116.958" gradientUnits="userSpaceOnUse">
<stop stop-color="#F126F7"/>
<stop offset="1" stop-color="#003CFF"/>
</linearGradient>
<linearGradient id="paint3_linear_211_169" x1="21.0942" y1="128.385" x2="1922.5" y2="128.385" gradientUnits="userSpaceOnUse">
<stop stop-color="#F126F7"/>
<stop offset="1" stop-color="#003CFF"/>
</linearGradient>
<linearGradient id="paint4_linear_211_169" x1="12.8862" y1="139.154" x2="1930.71" y2="139.154" gradientUnits="userSpaceOnUse">
<stop stop-color="#F126F7"/>
<stop offset="1" stop-color="#003CFF"/>
</linearGradient>
<linearGradient id="paint5_linear_211_169" x1="4.10742" y1="151.155" x2="1939.54" y2="151.155" gradientUnits="userSpaceOnUse">
<stop stop-color="#F126F7"/>
<stop offset="1" stop-color="#003CFF"/>
</linearGradient>
<linearGradient id="paint6_linear_211_169" x1="-5.35864" y1="162.961" x2="1949.02" y2="162.961" gradientUnits="userSpaceOnUse">
<stop stop-color="#F126F7"/>
<stop offset="1" stop-color="#003CFF"/>
</linearGradient>
<linearGradient id="paint7_linear_211_169" x1="-22.3557" y1="172.964" x2="1966.44" y2="172.964" gradientUnits="userSpaceOnUse">
<stop stop-color="#F126F7"/>
<stop offset="1" stop-color="#003CFF"/>
</linearGradient>
<linearGradient id="paint8_linear_211_169" x1="-45.3579" y1="183.525" x2="1990.22" y2="183.525" gradientUnits="userSpaceOnUse">
<stop stop-color="#F126F7"/>
<stop offset="1" stop-color="#003CFF"/>
</linearGradient>
<linearGradient id="paint9_linear_211_169" x1="-70.6931" y1="192.561" x2="2016.43" y2="192.561" gradientUnits="userSpaceOnUse">
<stop stop-color="#F126F7"/>
<stop offset="1" stop-color="#003CFF"/>
</linearGradient>
<linearGradient id="paint10_linear_211_169" x1="-94.6499" y1="201.781" x2="2041.17" y2="201.781" gradientUnits="userSpaceOnUse">
<stop stop-color="#F126F7"/>
<stop offset="1" stop-color="#003CFF"/>
</linearGradient>
<linearGradient id="paint11_linear_211_169" x1="-113.54" y1="211.218" x2="2060.56" y2="211.218" gradientUnits="userSpaceOnUse">
<stop stop-color="#F126F7"/>
<stop offset="1" stop-color="#003CFF"/>
</linearGradient>
<linearGradient id="paint12_linear_211_169" x1="-124.536" y1="220.838" x2="2071.54" y2="220.838" gradientUnits="userSpaceOnUse">
<stop stop-color="#F126F7"/>
<stop offset="1" stop-color="#003CFF"/>
</linearGradient>
<linearGradient id="paint13_linear_211_169" x1="-130.61" y1="230.659" x2="2077.23" y2="230.659" gradientUnits="userSpaceOnUse">
<stop stop-color="#F126F7"/>
<stop offset="1" stop-color="#003CFF"/>
</linearGradient>
<linearGradient id="paint14_linear_211_169" x1="-134.204" y1="231.957" x2="2080.21" y2="231.957" gradientUnits="userSpaceOnUse">
<stop stop-color="#F126F7"/>
<stop offset="1" stop-color="#003CFF"/>
</linearGradient>
<linearGradient id="paint15_linear_211_169" x1="-137.345" y1="239.453" x2="2082.7" y2="239.453" gradientUnits="userSpaceOnUse">
<stop stop-color="#F126F7"/>
<stop offset="1" stop-color="#003CFF"/>
</linearGradient>
<linearGradient id="paint16_linear_211_169" x1="-142.058" y1="247.141" x2="2086.86" y2="247.141" gradientUnits="userSpaceOnUse">
<stop stop-color="#F126F7"/>
<stop offset="1" stop-color="#003CFF"/>
</linearGradient>
<linearGradient id="paint17_linear_211_169" x1="-150.377" y1="256.899" x2="2094.89" y2="256.899" gradientUnits="userSpaceOnUse">
<stop stop-color="#F126F7"/>
<stop offset="1" stop-color="#003CFF"/>
</linearGradient>
<linearGradient id="paint18_linear_211_169" x1="-161.121" y1="270.956" x2="2105.58" y2="270.956" gradientUnits="userSpaceOnUse">
<stop stop-color="#F126F7"/>
<stop offset="1" stop-color="#003CFF"/>
</linearGradient>
<linearGradient id="paint19_linear_211_169" x1="-168.874" y1="289.389" x2="2113.18" y2="289.389" gradientUnits="userSpaceOnUse">
<stop stop-color="#F126F7"/>
<stop offset="1" stop-color="#003CFF"/>
</linearGradient>
<linearGradient id="paint20_linear_211_169" x1="-175.029" y1="305.686" x2="2119.12" y2="305.686" gradientUnits="userSpaceOnUse">
<stop stop-color="#F126F7"/>
<stop offset="1" stop-color="#003CFF"/>
</linearGradient>
<linearGradient id="paint21_linear_211_169" x1="-181.292" y1="317.392" x2="2125.16" y2="317.392" gradientUnits="userSpaceOnUse">
<stop stop-color="#F126F7"/>
<stop offset="1" stop-color="#003CFF"/>
</linearGradient>
<linearGradient id="paint22_linear_211_169" x1="-189.347" y1="329.373" x2="2133.05" y2="329.373" gradientUnits="userSpaceOnUse">
<stop stop-color="#F126F7"/>
<stop offset="1" stop-color="#003CFF"/>
</linearGradient>
<linearGradient id="paint23_linear_211_169" x1="-200.888" y1="340.138" x2="2144.53" y2="340.138" gradientUnits="userSpaceOnUse">
<stop stop-color="#F126F7"/>
<stop offset="1" stop-color="#003CFF"/>
</linearGradient>
<linearGradient id="paint24_linear_211_169" x1="-214.896" y1="348.003" x2="2158.53" y2="348.003" gradientUnits="userSpaceOnUse">
<stop stop-color="#F126F7"/>
<stop offset="1" stop-color="#003CFF"/>
</linearGradient>
<linearGradient id="paint25_linear_211_169" x1="-229.245" y1="355.723" x2="2172.89" y2="355.723" gradientUnits="userSpaceOnUse">
<stop stop-color="#F126F7"/>
<stop offset="1" stop-color="#003CFF"/>
</linearGradient>
<linearGradient id="paint26_linear_211_169" x1="-243.948" y1="368.225" x2="2187.59" y2="368.225" gradientUnits="userSpaceOnUse">
<stop stop-color="#F126F7"/>
<stop offset="1" stop-color="#003CFF"/>
</linearGradient>
<linearGradient id="paint27_linear_211_169" x1="-259.01" y1="376.149" x2="2202.65" y2="376.149" gradientUnits="userSpaceOnUse">
<stop stop-color="#F126F7"/>
<stop offset="1" stop-color="#003CFF"/>
</linearGradient>
<linearGradient id="paint28_linear_211_169" x1="-274.459" y1="385.847" x2="2218.1" y2="385.847" gradientUnits="userSpaceOnUse">
<stop stop-color="#F126F7"/>
<stop offset="1" stop-color="#003CFF"/>
</linearGradient>
<linearGradient id="paint29_linear_211_169" x1="-291.084" y1="398.861" x2="2234.45" y2="398.861" gradientUnits="userSpaceOnUse">
<stop stop-color="#F126F7"/>
<stop offset="1" stop-color="#003CFF"/>
</linearGradient>
<linearGradient id="paint30_linear_211_169" x1="-326.601" y1="415.673" x2="2263.41" y2="415.673" gradientUnits="userSpaceOnUse">
<stop stop-color="#F126F7"/>
<stop offset="1" stop-color="#003CFF"/>
</linearGradient>
<linearGradient id="paint31_linear_211_169" x1="-380.314" y1="429.003" x2="2304.54" y2="429.003" gradientUnits="userSpaceOnUse">
<stop stop-color="#F126F7"/>
<stop offset="1" stop-color="#003CFF"/>
</linearGradient>
<linearGradient id="paint32_linear_211_169" x1="-441.51" y1="452.858" x2="2350.74" y2="452.858" gradientUnits="userSpaceOnUse">
<stop stop-color="#F126F7"/>
<stop offset="1" stop-color="#003CFF"/>
</linearGradient>
<linearGradient id="paint33_linear_211_169" x1="-499.471" y1="477.256" x2="2394.97" y2="477.256" gradientUnits="userSpaceOnUse">
<stop stop-color="#F126F7"/>
<stop offset="1" stop-color="#003CFF"/>
</linearGradient>
<linearGradient id="paint34_linear_211_169" x1="-543.497" y1="486.392" x2="2430.15" y2="486.392" gradientUnits="userSpaceOnUse">
<stop stop-color="#F126F7"/>
<stop offset="1" stop-color="#003CFF"/>
</linearGradient>
<linearGradient id="paint35_linear_211_169" x1="-563.213" y1="502.447" x2="2449.47" y2="502.447" gradientUnits="userSpaceOnUse">
<stop stop-color="#F126F7"/>
<stop offset="1" stop-color="#003CFF"/>
</linearGradient>
<linearGradient id="paint36_linear_211_169" x1="-557.976" y1="517.33" x2="2452.49" y2="517.33" gradientUnits="userSpaceOnUse">
<stop stop-color="#F126F7"/>
<stop offset="1" stop-color="#003CFF"/>
</linearGradient>
<linearGradient id="paint37_linear_211_169" x1="-537.958" y1="531.065" x2="2445.94" y2="531.065" gradientUnits="userSpaceOnUse">
<stop stop-color="#F126F7"/>
<stop offset="1" stop-color="#003CFF"/>
</linearGradient>
<linearGradient id="paint38_linear_211_169" x1="-513.931" y1="545.112" x2="2436.94" y2="545.112" gradientUnits="userSpaceOnUse">
<stop stop-color="#F126F7"/>
<stop offset="1" stop-color="#003CFF"/>
</linearGradient>
<linearGradient id="paint39_linear_211_169" x1="-496.63" y1="560.256" x2="2432.59" y2="560.256" gradientUnits="userSpaceOnUse">
<stop stop-color="#F126F7"/>
<stop offset="1" stop-color="#003CFF"/>
</linearGradient>
<linearGradient id="paint40_linear_211_169" x1="957.943" y1="-6.18061e-08" x2="961.771" y2="533.002" gradientUnits="userSpaceOnUse">
<stop offset="0.144245" stop-color="#0D0B02" stop-opacity="0"/>
<stop offset="0.519259" stop-color="#0D0B02"/>
</linearGradient>
<clipPath id="clip0_211_169">
<rect width="1920" height="472" fill="white" transform="translate(0 61)"/>
</clipPath>
</defs>
</svg>
