<svg width="1920" height="305" viewBox="0 0 1920 305" fill="none" xmlns="http://www.w3.org/2000/svg">
<g clip-path="url(#clip0_211_169)">
<g clip-path="url(#clip1_211_169)">
<path d="M631.987 103.42C583.52 103.42 535.375 95.3294 501.601 81.3594C436.629 54.4779 368.971 40.8532 300.485 40.8532H299.508C220.508 41.0023 137.492 59.2563 52.7551 95.1025L46.3701 93.2986C132.74 56.7591 217.891 38.1534 299.466 38H300.493C371.538 38 441.323 51.97 507.926 79.5269C542.222 93.7166 591.837 101.584 640.968 100.467C724.872 98.6205 797.203 88.1614 855.961 69.3852C920.551 48.7345 1019.92 48.5747 1082.23 69.0015C1143.26 89.011 1219.32 98.4501 1308.84 97.1961C1356.31 96.5027 1402.5 88.9974 1435.57 76.6081C1505.2 50.5141 1576.71 37.659 1648.81 38.4601C1730.3 39.3517 1813.9 57.8005 1897.28 93.3022L1890.88 95.099C1809.08 60.2699 1727.54 42.1764 1648.55 41.3126C1579.39 40.5879 1509.58 53.0813 1441.63 78.5447C1407.09 91.484 1358.81 99.3203 1309.18 100.045C1217.47 101.327 1139.26 91.6338 1076.55 71.0707C1017.39 51.6675 922.958 51.8551 861.561 71.4816C801.374 90.7143 727.338 101.425 641.492 103.315C638.33 103.385 635.159 103.42 631.987 103.42Z" fill="url(#paint0_linear_211_169)"/>
<path d="M623.971 110.49C577.538 110.49 532.868 103.741 500.714 91.7972C433.248 66.7447 363.31 54.0429 292.832 54.0429C292.368 54.0429 291.904 54.0429 291.442 54.0465C211.688 54.2341 128.43 70.6735 43.9739 102.905L37.8511 100.989C123.928 68.1413 209.232 51.3852 291.391 51.1904H292.832C365.698 51.1904 437.657 64.1953 506.757 89.8542C538.467 101.633 583.018 108.115 628.865 107.613C718.79 106.642 796.62 96.0435 860.191 76.1139C922.393 56.6165 1018.8 56.578 1079.7 76.0197C1144.79 96.7989 1225.26 106.457 1318.68 104.712C1363.72 103.876 1405.93 97.5371 1437.55 86.859C1509.16 62.6838 1582.87 50.863 1656.27 51.5942C1738.25 52.4615 1822.19 69.0821 1905.78 100.989L1899.66 102.905C1817.64 71.593 1735.67 55.2898 1656.02 54.4466C1585.05 53.6941 1513.25 65.2824 1443.31 88.8998C1410.26 100.062 1366.16 106.687 1319.12 107.561C1223.14 109.324 1140.88 99.4288 1074.1 78.1168C1016.29 59.6609 924.771 59.7129 865.731 78.2245C800.669 98.6242 721.065 109.473 629.127 110.462C627.405 110.484 625.683 110.49 623.971 110.49Z" fill="url(#paint1_linear_211_169)"/>
<path d="M618.503 117.707C614.294 117.707 610.064 117.686 605.814 117.644C567.811 117.292 529.817 112.207 498.831 103.319C350.168 60.7121 194.055 63.2586 34.8083 110.918L29.4111 108.759C192.182 60.0573 351.89 57.4872 504.087 101.125C533.674 109.605 569.876 114.457 606.036 114.795C705.073 115.742 792.289 105.666 865.225 84.9322C927.548 67.2152 1014.32 67.288 1076.28 85.0962C1151.49 106.718 1242.08 115.742 1345.58 111.943C1378.33 110.737 1410.72 106.15 1439.26 98.6761C1594.47 58.0165 1754.29 61.4161 1914.21 108.756L1908.85 110.922C1752.25 64.571 1595.94 61.2207 1444.24 100.954C1414.51 108.738 1380.7 113.521 1346.45 114.777C1240.7 118.686 1148.01 109.42 1071.01 87.2904C1012.14 70.3666 929.673 70.3074 870.463 87.1334C799.086 107.432 714.378 117.707 618.503 117.707Z" fill="url(#paint2_linear_211_169)"/>
<path d="M621.766 124.923C607.033 124.923 592.12 124.7 577.005 124.248C551.789 123.495 527.763 121.015 507.493 117.076C350.249 86.4928 187.963 87.1826 25.1631 119.124L21.0942 116.644C186.573 84.1696 351.589 83.4798 511.539 114.59C530.784 118.33 553.662 120.688 577.709 121.405C683.726 124.554 780.014 116.453 864.26 97.3036C930.046 82.3514 1012.16 82.0104 1073.45 96.4226C1161.39 117.097 1262.74 124.609 1374.74 118.723C1394.14 117.707 1414.09 115.429 1434.05 111.949C1594.97 83.8843 1759.29 85.4649 1922.5 116.634L1918.51 119.135C1757.83 88.4394 1596.09 86.8758 1437.75 114.499C1417.02 118.114 1396.23 120.482 1375.97 121.545C1261.87 127.535 1158.52 119.873 1068.82 98.7837C1010.28 85.0191 931.778 85.375 868.791 99.686C794.988 116.463 712.052 124.923 621.766 124.923Z" fill="url(#paint3_linear_211_169)"/>
<path d="M624.827 132.057C597.346 132.057 569.422 131.384 541.105 130.044C533.786 129.699 525.971 129.11 517.219 128.243C351.489 111.807 182.525 111.549 15.0827 127.459L12.8862 124.708C181.801 108.651 352.254 108.913 519.496 125.499C527.862 126.327 535.295 126.892 542.222 127.216C660.655 132.83 772.009 126.522 873.203 108.467C934.74 97.4888 1008.04 97.5166 1069.27 108.533C1172.34 127.073 1285.97 132.666 1407 125.133C1411.61 124.847 1416.25 124.474 1420.79 124.073C1589.68 109.15 1761.23 109.365 1930.71 124.704L1928.61 127.462C1760.52 112.243 1590.32 112.034 1422.83 126.839C1418.1 127.253 1413.26 127.64 1408.47 127.94C1285.58 135.585 1170.18 129.904 1065.47 111.061C1006.59 100.474 936.128 100.449 876.989 111.002C798.462 125.011 713.936 132.057 624.827 132.057Z" fill="url(#paint4_linear_211_169)"/>
<path d="M611.686 138.615C562.242 138.615 514.662 136.908 454.675 133.31C301.814 124.136 141.683 129.448 5.2148 135.856L4.10742 133.028C141.198 126.602 302.117 121.27 456.086 130.496C553.362 136.337 617.687 137.155 711.016 133.756C744.336 132.541 781.374 129.517 820.587 126.313C872.427 122.078 926.029 117.696 971.817 117.696C1019.71 117.696 1068.44 121.364 1115.56 124.909C1132.43 126.177 1149.87 127.49 1166.8 128.591C1278.09 135.849 1349.65 137.545 1504.82 129.305C1627.02 122.816 1831.76 127.974 1939.54 133.028L1938.43 135.856C1831.11 130.83 1627.41 125.686 1506.07 132.126C1349.69 140.426 1277.55 138.702 1165.27 131.398C1148.23 130.287 1130.74 128.971 1113.81 127.696C1067.11 124.185 1018.82 120.552 971.817 120.552C926.996 120.552 873.867 124.892 822.48 129.089C783.005 132.314 745.716 135.362 711.882 136.591C675.288 137.925 643.103 138.615 611.686 138.615Z" fill="url(#paint5_linear_211_169)"/>
<path d="M1458.76 146.476C1405.72 146.476 1352.75 146.253 1300.37 145.664C1250.24 145.104 1199.75 143.038 1150.92 141.039C1093.97 138.709 1035.1 136.302 976.972 136.302C912.193 136.302 846.215 138.542 782.411 140.705C730.249 142.477 676.315 144.306 623.084 144.919C489.477 146.465 352.537 145.79 220.096 145.132C146.405 144.769 70.2048 144.393 -5.35864 144.393V141.537C70.2667 141.541 146.496 141.917 220.218 142.279C352.565 142.93 489.417 143.602 622.804 142.07C675.781 141.46 729.574 139.632 781.607 137.866C845.611 135.693 911.791 133.446 976.972 133.446C1035.58 133.446 1094.71 135.867 1151.89 138.208C1200.54 140.196 1250.85 142.255 1300.63 142.815C1433.29 144.299 1569.78 143.428 1701.75 142.589C1782.61 142.074 1866.22 141.541 1949.02 141.537V144.393C1866.29 144.393 1782.73 144.926 1701.91 145.441C1621.9 145.953 1540.24 146.476 1458.76 146.476Z" fill="url(#paint6_linear_211_169)"/>
<path d="M1335.99 153.107C1273.61 153.107 1210.8 152.233 1150.04 151.386C1089.5 150.547 1026.89 149.676 964.95 149.676C899.021 149.676 831.482 150.547 766.179 151.386C700.624 152.233 632.844 153.107 566.433 153.107H566.241L-22.3557 153.082V150.226L566.241 150.251H566.433C632.693 150.251 700.393 149.38 765.867 148.537C831.251 147.695 898.871 146.82 964.95 146.82C1027.06 146.82 1089.75 147.695 1150.38 148.537C1211.05 149.38 1273.78 150.251 1335.99 150.251H1336.17L1966.44 150.226V153.082L1336.17 153.107H1335.99Z" fill="url(#paint7_linear_211_169)"/>
<path d="M901.035 161.957C586.651 161.957 272.128 161.953 -45.3579 161.95V159.094C637.646 159.104 1307.17 159.104 1990.22 159.094V161.95C1624.69 161.953 1262.97 161.957 901.035 161.957Z" fill="url(#paint8_linear_211_169)"/>
<path d="M2016.43 170.995C1319.25 170.971 626.65 170.971 -70.6931 170.995V168.139C626.65 168.122 1319.27 168.122 2016.43 168.139V170.995Z" fill="url(#paint9_linear_211_169)"/>
<path d="M2041.17 180.225C1328.47 180.176 618.311 180.176 -94.6499 180.225V177.369C618.301 177.328 1328.48 177.328 2041.17 177.369V180.225Z" fill="url(#paint10_linear_211_169)"/>
<path d="M2060.56 186.79H-113.54V189.646H2060.56V186.79Z" fill="url(#paint11_linear_211_169)"/>
<path d="M2071.54 196.41H-124.536V199.266H2071.54V196.41Z" fill="url(#paint12_linear_211_169)"/>
<path d="M2077.23 206.231H-130.61V209.087H2077.23V206.231Z" fill="url(#paint13_linear_211_169)"/>
<path d="M969.854 219.119C881.189 219.119 796.701 214.654 714.963 210.335C643.023 206.535 568.648 202.606 492.459 201.812C384.286 200.715 280.073 205.323 169.768 210.227C71.5048 214.598 -30.0997 219.119 -134.204 219.119V216.263C-30.6235 216.263 70.7188 211.756 168.72 207.399C274.464 202.697 383.814 197.821 492.701 198.963C569.392 199.761 644.032 203.703 716.203 207.514C797.638 211.818 881.832 216.266 969.854 216.266C970.508 216.266 971.153 216.266 971.807 216.263C1049.25 216.207 1123.4 212.815 1195.12 209.534C1245.83 207.214 1298.26 204.815 1351.87 203.578C1496.82 200.231 1622.28 204.55 1755.06 209.116C1857.19 212.63 1962.79 216.263 2080.21 216.263V219.119C1962.38 219.119 1856.57 215.476 1754.24 211.958C1621.81 207.402 1496.79 203.108 1352.41 206.427C1299.08 207.656 1246.78 210.049 1196.2 212.362C1124.22 215.657 1049.79 219.06 971.828 219.119H969.854Z" fill="url(#paint14_linear_211_169)"/>
<path d="M969.934 229.369C878.317 229.369 792.32 223.462 709.122 217.747C633.175 212.532 554.65 207.138 473.628 206.476C369.908 205.685 272.591 211.421 169.576 217.551C71.9267 223.361 -29.0527 229.369 -137.345 229.369V226.513C-29.758 226.513 70.8707 220.529 168.175 214.737C271.594 208.586 369.241 202.739 473.828 203.627C555.555 204.292 634.443 209.708 710.733 214.95C793.529 220.637 879.134 226.517 969.944 226.517C970.569 226.517 971.181 226.517 971.806 226.513C1053.2 226.44 1128.63 221.972 1201.55 217.649C1253.98 214.542 1308.18 211.331 1364.82 209.704C1514.6 205.407 1631.16 210.979 1754.6 216.876C1853.8 221.613 1956.37 226.513 2082.7 226.513V229.369C1955.81 229.369 1852.95 224.455 1753.47 219.7C1630.5 213.828 1514.36 208.27 1365.51 212.547C1309.23 214.162 1255.19 217.366 1202.95 220.463C1129.68 224.803 1053.92 229.292 971.827 229.369H969.934Z" fill="url(#paint15_linear_211_169)"/>
<path d="M970.89 239.838C876.091 239.838 787.979 232.451 702.747 225.304C619.811 218.348 541.457 211.78 456.77 211.324C355.526 210.805 264.494 217.673 168.025 224.98C71.5945 232.284 -28.127 239.838 -142.058 239.838V236.982C-29.0241 236.982 70.256 229.466 166.263 222.194C263.215 214.852 354.772 207.991 456.89 208.468C542.515 208.934 624.958 215.845 704.692 222.532C789.439 229.637 877.079 236.982 970.89 236.982H971.806C1057.33 236.941 1134.18 231.532 1208.5 226.3C1262.32 222.514 1317.97 218.596 1377.33 216.628C1534.56 211.421 1642.23 218.039 1756.2 225.057C1851.52 230.918 1950.08 236.982 2086.86 236.982V239.838C1949.35 239.838 1850.43 233.75 1754.75 227.864C1641.37 220.891 1534.25 214.302 1378.12 219.471C1319.19 221.421 1263.75 225.325 1210.15 229.097C1135.43 234.356 1058.17 239.793 971.827 239.838H970.89Z" fill="url(#paint16_linear_211_169)"/>
<path d="M975.23 250.541H971.807C874.017 250.475 784.014 242.597 696.969 234.976C612.059 227.544 531.852 220.525 444.978 220.132C343.273 219.637 256.037 226.896 163.242 234.544C67.8499 242.409 -30.7847 250.541 -150.377 250.541V247.685C-31.7623 247.685 66.3998 239.595 161.329 231.769C254.626 224.078 342.858 216.831 445.079 217.276C532.938 217.677 617.355 225.063 698.992 232.211C785.554 239.786 875.055 247.622 971.827 247.685C972.955 247.689 974.102 247.689 975.23 247.689C1126.58 247.689 1237.01 240.859 1387.11 228.3C1558.09 213.985 1662.88 222.682 1784.23 232.744C1872.81 240.089 1964.42 247.685 2094.89 247.685V250.541C1963.44 250.541 1867.2 242.559 1782.31 235.52C1661.99 225.541 1558.11 216.928 1389.05 231.072C1238.34 243.683 1127.4 250.541 975.23 250.541Z" fill="url(#paint17_linear_211_169)"/>
<path d="M2105.58 261.481C1984.6 261.481 1892.43 255.337 1803.3 249.399C1675.16 240.859 1564.48 233.482 1399.69 246.198C1244.37 258.183 1121.41 260.624 973.871 260.624H971.737C864.352 260.607 766.825 254.627 672.508 248.848C595.342 244.118 515.549 239.229 430.912 237.647C326.084 235.673 232.201 242.074 132.72 248.835C41.2258 255.051 -53.3815 261.481 -161.121 261.481V258.625C-54.1879 258.625 40.0272 252.227 131.128 246.034C231.134 239.242 325.539 232.81 431.355 234.798C516.496 236.39 596.541 241.294 673.948 246.038C767.911 251.798 865.075 257.751 971.737 257.768H973.871C1120.86 257.768 1243.3 255.341 1397.9 243.412C1564.37 230.57 1681.18 238.358 1804.86 246.595C1893.61 252.513 1985.39 258.625 2105.58 258.625V261.481Z" fill="url(#paint18_linear_211_169)"/>
<path d="M970.106 275.844C867.895 275.844 769.623 271.749 674.573 267.792C593.48 264.413 509.628 260.92 423.964 260.004C318.511 258.886 220.551 262.369 116.859 266.064C25.8076 269.311 -68.3455 272.668 -168.874 272.668V269.812C-68.7684 269.812 25.1724 266.465 116.014 263.229C219.986 259.523 318.179 256.005 424.225 257.155C510.251 258.071 594.286 261.571 675.561 264.957C770.367 268.906 868.39 272.988 970.106 272.988H971.434C1126.72 272.933 1252.97 271.219 1402.29 262.874C1565.31 253.759 1693.77 258.426 1829.8 263.369C1917.07 266.538 2007.3 269.812 2113.18 269.812V272.668C2006.87 272.668 1916.42 269.38 1828.94 266.203C1693.5 261.29 1565.56 256.647 1403.6 265.688C1253.74 274.068 1127.15 275.785 971.434 275.844H970.106Z" fill="url(#paint19_linear_211_169)"/>
<path d="M2119.12 281.258H-175.029V284.114H2119.12V281.258Z" fill="url(#paint20_linear_211_169)"/>
<path d="M2125.16 292.964H-181.292V295.82H2125.16V292.964Z" fill="url(#paint21_linear_211_169)"/>
<path d="M2133.05 304.945H-189.347V307.801H2133.05V304.945Z" fill="url(#paint22_linear_211_169)"/>
</g>
<rect width="1920" height="485" transform="translate(0 25)" fill="url(#paint23_linear_211_169)"/>
</g>
<defs>
<linearGradient id="paint0_linear_211_169" x1="46.3701" y1="70.7098" x2="1897.28" y2="70.7098" gradientUnits="userSpaceOnUse">
<stop stop-color="#F126F7"/>
<stop offset="1" stop-color="#003CFF"/>
</linearGradient>
<linearGradient id="paint1_linear_211_169" x1="37.8511" y1="80.8402" x2="1905.78" y2="80.8402" gradientUnits="userSpaceOnUse">
<stop stop-color="#F126F7"/>
<stop offset="1" stop-color="#003CFF"/>
</linearGradient>
<linearGradient id="paint2_linear_211_169" x1="29.4111" y1="93.9579" x2="1914.21" y2="93.9579" gradientUnits="userSpaceOnUse">
<stop stop-color="#F126F7"/>
<stop offset="1" stop-color="#003CFF"/>
</linearGradient>
<linearGradient id="paint3_linear_211_169" x1="21.0942" y1="105.385" x2="1922.5" y2="105.385" gradientUnits="userSpaceOnUse">
<stop stop-color="#F126F7"/>
<stop offset="1" stop-color="#003CFF"/>
</linearGradient>
<linearGradient id="paint4_linear_211_169" x1="12.8862" y1="116.154" x2="1930.71" y2="116.154" gradientUnits="userSpaceOnUse">
<stop stop-color="#F126F7"/>
<stop offset="1" stop-color="#003CFF"/>
</linearGradient>
<linearGradient id="paint5_linear_211_169" x1="4.10742" y1="128.155" x2="1939.54" y2="128.155" gradientUnits="userSpaceOnUse">
<stop stop-color="#F126F7"/>
<stop offset="1" stop-color="#003CFF"/>
</linearGradient>
<linearGradient id="paint6_linear_211_169" x1="-5.35864" y1="139.961" x2="1949.02" y2="139.961" gradientUnits="userSpaceOnUse">
<stop stop-color="#F126F7"/>
<stop offset="1" stop-color="#003CFF"/>
</linearGradient>
<linearGradient id="paint7_linear_211_169" x1="-22.3557" y1="149.964" x2="1966.44" y2="149.964" gradientUnits="userSpaceOnUse">
<stop stop-color="#F126F7"/>
<stop offset="1" stop-color="#003CFF"/>
</linearGradient>
<linearGradient id="paint8_linear_211_169" x1="-45.3579" y1="160.525" x2="1990.22" y2="160.525" gradientUnits="userSpaceOnUse">
<stop stop-color="#F126F7"/>
<stop offset="1" stop-color="#003CFF"/>
</linearGradient>
<linearGradient id="paint9_linear_211_169" x1="-70.6931" y1="169.561" x2="2016.43" y2="169.561" gradientUnits="userSpaceOnUse">
<stop stop-color="#F126F7"/>
<stop offset="1" stop-color="#003CFF"/>
</linearGradient>
<linearGradient id="paint10_linear_211_169" x1="-94.6499" y1="178.781" x2="2041.17" y2="178.781" gradientUnits="userSpaceOnUse">
<stop stop-color="#F126F7"/>
<stop offset="1" stop-color="#003CFF"/>
</linearGradient>
<linearGradient id="paint11_linear_211_169" x1="-113.54" y1="188.218" x2="2060.56" y2="188.218" gradientUnits="userSpaceOnUse">
<stop stop-color="#F126F7"/>
<stop offset="1" stop-color="#003CFF"/>
</linearGradient>
<linearGradient id="paint12_linear_211_169" x1="-124.536" y1="197.838" x2="2071.54" y2="197.838" gradientUnits="userSpaceOnUse">
<stop stop-color="#F126F7"/>
<stop offset="1" stop-color="#003CFF"/>
</linearGradient>
<linearGradient id="paint13_linear_211_169" x1="-130.61" y1="207.659" x2="2077.23" y2="207.659" gradientUnits="userSpaceOnUse">
<stop stop-color="#F126F7"/>
<stop offset="1" stop-color="#003CFF"/>
</linearGradient>
<linearGradient id="paint14_linear_211_169" x1="-134.204" y1="208.957" x2="2080.21" y2="208.957" gradientUnits="userSpaceOnUse">
<stop stop-color="#F126F7"/>
<stop offset="1" stop-color="#003CFF"/>
</linearGradient>
<linearGradient id="paint15_linear_211_169" x1="-137.345" y1="216.453" x2="2082.7" y2="216.453" gradientUnits="userSpaceOnUse">
<stop stop-color="#F126F7"/>
<stop offset="1" stop-color="#003CFF"/>
</linearGradient>
<linearGradient id="paint16_linear_211_169" x1="-142.058" y1="224.141" x2="2086.86" y2="224.141" gradientUnits="userSpaceOnUse">
<stop stop-color="#F126F7"/>
<stop offset="1" stop-color="#003CFF"/>
</linearGradient>
<linearGradient id="paint17_linear_211_169" x1="-150.377" y1="233.899" x2="2094.89" y2="233.899" gradientUnits="userSpaceOnUse">
<stop stop-color="#F126F7"/>
<stop offset="1" stop-color="#003CFF"/>
</linearGradient>
<linearGradient id="paint18_linear_211_169" x1="-161.121" y1="247.956" x2="2105.58" y2="247.956" gradientUnits="userSpaceOnUse">
<stop stop-color="#F126F7"/>
<stop offset="1" stop-color="#003CFF"/>
</linearGradient>
<linearGradient id="paint19_linear_211_169" x1="-168.874" y1="266.389" x2="2113.18" y2="266.389" gradientUnits="userSpaceOnUse">
<stop stop-color="#F126F7"/>
<stop offset="1" stop-color="#003CFF"/>
</linearGradient>
<linearGradient id="paint20_linear_211_169" x1="-175.029" y1="282.686" x2="2119.12" y2="282.686" gradientUnits="userSpaceOnUse">
<stop stop-color="#F126F7"/>
<stop offset="1" stop-color="#003CFF"/>
</linearGradient>
<linearGradient id="paint21_linear_211_169" x1="-181.292" y1="294.392" x2="2125.16" y2="294.392" gradientUnits="userSpaceOnUse">
<stop stop-color="#F126F7"/>
<stop offset="1" stop-color="#003CFF"/>
</linearGradient>
<linearGradient id="paint22_linear_211_169" x1="-189.347" y1="306.373" x2="2133.05" y2="306.373" gradientUnits="userSpaceOnUse">
<stop stop-color="#F126F7"/>
<stop offset="1" stop-color="#003CFF"/>
</linearGradient>
<linearGradient id="paint23_linear_211_169" x1="957.943" y1="-5.62401e-08" x2="961.112" y2="485.006" gradientUnits="userSpaceOnUse">
<stop offset="0.20194" stop-color="#0D0B02" stop-opacity="0"/>
<stop offset="0.538491" stop-color="#0D0B02"/>
</linearGradient>
<clipPath id="clip0_211_169">
<rect width="1920" height="305" fill="white"/>
</clipPath>
<clipPath id="clip1_211_169">
<rect width="1920" height="472" fill="white" transform="translate(0 38)"/>
</clipPath>
</defs>
</svg>
